<?xml version="1.0" encoding="utf-8" standalone="no"?>
<!DOCTYPE svg PUBLIC "-//W3C//DTD SVG 1.1//EN"
  "http://www.w3.org/Graphics/SVG/1.1/DTD/svg11.dtd">
<svg xmlns:xlink="http://www.w3.org/1999/xlink" width="414.434223pt" height="366.773782pt" viewBox="0 0 414.434223 366.773782" xmlns="http://www.w3.org/2000/svg" version="1.1">
 <metadata>
  <rdf:RDF xmlns:dc="http://purl.org/dc/elements/1.1/" xmlns:cc="http://creativecommons.org/ns#" xmlns:rdf="http://www.w3.org/1999/02/22-rdf-syntax-ns#">
   <cc:Work>
    <dc:type rdf:resource="http://purl.org/dc/dcmitype/StillImage"/>
    <dc:date>2026-04-30T21:29:34.731245</dc:date>
    <dc:format>image/svg+xml</dc:format>
    <dc:creator>
     <cc:Agent>
      <dc:title>Matplotlib v3.10.9, https://matplotlib.org/</dc:title>
     </cc:Agent>
    </dc:creator>
   </cc:Work>
  </rdf:RDF>
 </metadata>
 <defs>
  <style type="text/css">*{stroke-linejoin: round; stroke-linecap: butt}</style>
 </defs>
 <g id="figure_1">
  <g id="patch_1">
   <path d="M 0 366.773782
L 414.434223 366.773782
L 414.434223 0
L 0 0
z
" style="fill: #ffffff"/>
  </g>
  <g id="axes_1">
   <g id="patch_2">
    <path d="M 298.163563 189.005782
C 298.163563 172.206694 294.854508 155.570956 288.425776 140.050622
C 281.997043 124.530288 272.573654 110.42719 260.694905 98.54844
C 248.816155 86.669691 234.713057 77.246302 219.192723 70.817569
C 203.672389 64.388837 187.036651 61.079782 170.237563 61.079782
C 153.438474 61.079782 136.802736 64.388837 121.282402 70.817569
C 105.762068 77.246302 91.65897 86.669691 79.78022 98.54844
C 67.901471 110.42719 58.478082 124.530288 52.049349 140.050622
C 45.620617 155.570956 42.311562 172.206694 42.311562 189.005782
C 42.311562 205.804871 45.620617 222.440609 52.049349 237.960943
C 58.478082 253.481277 67.901471 267.584375 79.78022 279.463125
C 91.65897 291.341874 105.762068 300.765263 121.282402 307.193996
C 136.802736 313.622728 153.438474 316.931782 170.237562 316.931782
C 187.036651 316.931782 203.672389 313.622728 219.192723 307.193996
C 234.713057 300.765263 248.816155 291.341874 260.694905 279.463125
C 272.573654 267.584375 281.997043 253.481277 288.425776 237.960943
C 294.854508 222.440609 298.163563 205.804871 298.163563 189.005783
M 170.237563 189.005782
C 170.237563 189.005782 170.237563 189.005782 170.237563 189.005782
C 170.237563 189.005782 170.237563 189.005782 170.237563 189.005782
C 170.237563 189.005782 170.237563 189.005782 170.237563 189.005782
C 170.237563 189.005782 170.237563 189.005782 170.237563 189.005782
C 170.237563 189.005782 170.237563 189.005782 170.237563 189.005782
C 170.237563 189.005782 170.237563 189.005782 170.237563 189.005782
C 170.237563 189.005782 170.237563 189.005782 170.237563 189.005782
C 170.237563 189.005782 170.237563 189.005782 170.237563 189.005782
C 170.237563 189.005782 170.237563 189.005782 170.237563 189.005782
C 170.237563 189.005782 170.237563 189.005782 170.237563 189.005782
C 170.237563 189.005782 170.237563 189.005782 170.237563 189.005782
C 170.237563 189.005782 170.237563 189.005782 170.237563 189.005782
C 170.237563 189.005782 170.237563 189.005782 170.237563 189.005782
C 170.237563 189.005782 170.237563 189.005782 170.237563 189.005782
C 170.237563 189.005782 170.237563 189.005782 170.237563 189.005782
C 170.237563 189.005782 170.237563 189.005782 170.237563 189.005782
z
" style="fill: #ffffff"/>
   </g>
   <g id="matplotlib.axis_1">
    <g id="xtick_1">
     <g id="line2d_1">
      <path d="M 170.237563 189.005782
L 298.163563 189.005782
" clip-path="url(#p8d7199f703)" style="fill: none; stroke: #b0b0b0; stroke-opacity: 0.17; stroke-width: 0.55; stroke-linecap: square"/>
     </g>
     <g id="text_1">
      <text style="font-size: 7px; font-family: 'DejaVu Serif'" transform="translate(297.205984 183.049111)">dynamic</text>
      <text style="font-size: 7px; font-family: 'DejaVu Serif'" transform="translate(297.489813 190.987111)">operand</text>
      <text style="font-size: 7px; font-family: 'DejaVu Serif'" transform="translate(298.44575 198.825579)">support</text>
     </g>
    </g>
    <g id="xtick_2">
     <g id="line2d_2">
      <path d="M 170.237563 189.005782
L 234.200563 78.218617
" clip-path="url(#p8d7199f703)" style="fill: none; stroke: #b0b0b0; stroke-opacity: 0.17; stroke-width: 0.55; stroke-linecap: square"/>
     </g>
     <g id="text_2">
      <text style="font-size: 7px; font-family: 'DejaVu Serif'" transform="translate(223.603219 60.137589)">broadcast</text>
      <text style="font-size: 7px; font-family: 'DejaVu Serif'" transform="translate(233.930953 67.976058)">cost</text>
      <text style="font-size: 7px; font-family: 'DejaVu Serif'" transform="translate(224.728688 75.814527)">modeling</text>
     </g>
    </g>
    <g id="xtick_3">
     <g id="line2d_3">
      <path d="M 170.237563 189.005782
L 106.274563 78.218617
" clip-path="url(#p8d7199f703)" style="fill: none; stroke: #b0b0b0; stroke-opacity: 0.17; stroke-width: 0.55; stroke-linecap: square"/>
     </g>
     <g id="text_3">
      <text style="font-size: 7px; font-family: 'DejaVu Serif'" transform="translate(90.346281 64.056824)">early</text>
      <text style="font-size: 7px; font-family: 'DejaVu Serif'" transform="translate(91.724406 71.994824)">stop</text>
     </g>
    </g>
    <g id="xtick_4">
     <g id="line2d_4">
      <path d="M 170.237563 189.005782
L 42.311563 189.005782
" clip-path="url(#p8d7199f703)" style="fill: none; stroke: #b0b0b0; stroke-opacity: 0.17; stroke-width: 0.55; stroke-linecap: square"/>
     </g>
     <g id="text_4">
      <text style="font-size: 7px; font-family: 'DejaVu Serif'" transform="translate(16.647813 183.098876)">sparse</text>
      <text style="font-size: 7px; font-family: 'DejaVu Serif'" transform="translate(17.223672 190.937345)">power</text>
      <text style="font-size: 7px; font-family: 'DejaVu Serif'" transform="translate(7.2 198.775814)">reallocation</text>
     </g>
    </g>
    <g id="xtick_5">
     <g id="line2d_5">
      <path d="M 170.237563 189.005782
L 106.274562 299.792948
" clip-path="url(#p8d7199f703)" style="fill: none; stroke: #b0b0b0; stroke-opacity: 0.17; stroke-width: 0.55; stroke-linecap: square"/>
     </g>
     <g id="text_5">
      <text style="font-size: 7px; font-family: 'DejaVu Serif'" transform="translate(92.802297 309.879866)">phy</text>
      <text style="font-size: 7px; font-family: 'DejaVu Serif'" transform="translate(86.293391 317.817866)">closure</text>
     </g>
    </g>
    <g id="xtick_6">
     <g id="line2d_6">
      <path d="M 170.237563 189.005782
L 234.200562 299.792948
" clip-path="url(#p8d7199f703)" style="fill: none; stroke: #b0b0b0; stroke-opacity: 0.17; stroke-width: 0.55; stroke-linecap: square"/>
     </g>
     <g id="text_6">
      <text style="font-size: 7px; font-family: 'DejaVu Serif'; text-anchor: middle" x="241.200562" y="313.799101" transform="rotate(-0 241.200562 313.799101)">reproducibility</text>
     </g>
    </g>
   </g>
   <g id="matplotlib.axis_2">
    <g id="ytick_1">
     <g id="line2d_7">
      <path d="M 195.822763 189.005782
C 195.822763 185.645965 195.160952 182.318817 193.875205 179.21475
C 192.589459 176.110684 190.704781 173.290064 188.329031 170.914314
C 185.953281 168.538564 183.132661 166.653886 180.028595 165.36814
C 176.924528 164.082393 173.59738 163.420582 170.237563 163.420582
C 166.877745 163.420582 163.550597 164.082393 160.44653 165.36814
C 157.342464 166.653886 154.521844 168.538564 152.146094 170.914314
C 149.770344 173.290064 147.885666 176.110684 146.59992 179.21475
C 145.314173 182.318817 144.652363 185.645965 144.652363 189.005782
C 144.652363 192.3656 145.314173 195.692748 146.59992 198.796815
C 147.885666 201.900881 149.770344 204.721501 152.146094 207.097251
C 154.521844 209.473001 157.342464 211.357679 160.44653 212.643425
C 163.550597 213.929172 166.877745 214.590982 170.237563 214.590982
C 173.59738 214.590982 176.924528 213.929172 180.028595 212.643425
C 183.132661 211.357679 185.953281 209.473001 188.329031 207.097251
C 190.704781 204.721501 192.589459 201.900881 193.875205 198.796815
C 195.160952 195.692748 195.822763 192.3656 195.822763 189.005782
" clip-path="url(#p8d7199f703)" style="fill: none; stroke: #b0b0b0; stroke-opacity: 0.17; stroke-width: 0.55; stroke-linecap: square"/>
     </g>
     <g id="text_7">
      <text style="font-size: 7.8px; font-family: 'DejaVu Serif'; text-anchor: start" x="193.875205" y="177.592594" transform="rotate(-0 193.875205 177.592594)">1</text>
     </g>
    </g>
    <g id="ytick_2">
     <g id="line2d_8">
      <path d="M 221.407963 189.005782
C 221.407963 182.286147 220.084341 175.631852 217.512848 169.423718
C 214.941355 163.215585 211.171999 157.574345 206.420499 152.822846
C 201.669 148.071346 196.02776 144.30199 189.819627 141.730497
C 183.611493 139.159004 176.957198 137.835382 170.237563 137.835382
C 163.517927 137.835382 156.863632 139.159004 150.655498 141.730497
C 144.447365 144.30199 138.806125 148.071346 134.054626 152.822846
C 129.303126 157.574345 125.53377 163.215585 122.962277 169.423718
C 120.390784 175.631852 119.067163 182.286147 119.067163 189.005782
C 119.067163 195.725418 120.390784 202.379713 122.962277 208.587847
C 125.53377 214.79598 129.303126 220.43722 134.054626 225.188719
C 138.806125 229.940219 144.447365 233.709575 150.655498 236.281068
C 156.863632 238.852561 163.517927 240.176182 170.237563 240.176182
C 176.957198 240.176182 183.611493 238.852561 189.819627 236.281068
C 196.02776 233.709575 201.669 229.940219 206.420499 225.188719
C 211.171999 220.43722 214.941355 214.79598 217.512848 208.587847
C 220.084341 202.379713 221.407963 195.725418 221.407963 189.005782
" clip-path="url(#p8d7199f703)" style="fill: none; stroke: #b0b0b0; stroke-opacity: 0.17; stroke-width: 0.55; stroke-linecap: square"/>
     </g>
     <g id="text_8">
      <text style="font-size: 7.8px; font-family: 'DejaVu Serif'; text-anchor: start" x="217.512848" y="167.801562" transform="rotate(-0 217.512848 167.801562)">2</text>
     </g>
    </g>
    <g id="ytick_3">
     <g id="line2d_9">
      <path d="M 246.993163 189.005782
C 246.993163 178.926329 245.00773 168.944886 241.15049 159.632686
C 237.293251 150.320486 231.639217 141.858627 224.511968 134.731377
C 217.384718 127.604128 208.922859 121.950094 199.610659 118.092855
C 190.298459 114.235615 180.317016 112.250182 170.237563 112.250182
C 160.158109 112.250182 150.176666 114.235615 140.864466 118.092855
C 131.552266 121.950094 123.090407 127.604128 115.963157 134.731377
C 108.835908 141.858627 103.181874 150.320486 99.324635 159.632686
C 95.467395 168.944886 93.481963 178.926329 93.481963 189.005782
C 93.481963 199.085236 95.467395 209.066679 99.324635 218.378879
C 103.181874 227.691079 108.835908 236.152938 115.963157 243.280188
C 123.090407 250.407437 131.552266 256.061471 140.864466 259.91871
C 150.176666 263.77595 160.158109 265.761382 170.237563 265.761382
C 180.317016 265.761382 190.298459 263.77595 199.610659 259.91871
C 208.922859 256.061471 217.384718 250.407437 224.511968 243.280188
C 231.639217 236.152938 237.293251 227.691079 241.15049 218.378879
C 245.00773 209.066679 246.993163 199.085236 246.993163 189.005782
" clip-path="url(#p8d7199f703)" style="fill: none; stroke: #b0b0b0; stroke-opacity: 0.17; stroke-width: 0.55; stroke-linecap: square"/>
     </g>
     <g id="text_9">
      <text style="font-size: 7.8px; font-family: 'DejaVu Serif'; text-anchor: start" x="241.15049" y="158.01053" transform="rotate(-0 241.15049 158.01053)">3</text>
     </g>
    </g>
    <g id="ytick_4">
     <g id="line2d_10">
      <path d="M 272.578363 189.005782
C 272.578363 175.566512 269.931119 162.257921 264.788133 149.841654
C 259.645147 137.425387 252.106436 126.142908 242.603436 116.639909
C 233.100437 107.136909 221.817958 99.598198 209.401691 94.455212
C 196.985424 89.312226 183.676833 86.664982 170.237563 86.664982
C 156.798292 86.664982 143.489701 89.312226 131.073434 94.455212
C 118.657167 99.598198 107.374688 107.136909 97.871689 116.639909
C 88.368689 126.142908 80.829978 137.425387 75.686992 149.841654
C 70.544006 162.257921 67.896763 175.566512 67.896763 189.005782
C 67.896763 202.445053 70.544006 215.753644 75.686992 228.169911
C 80.829978 240.586178 88.368689 251.868657 97.871689 261.371656
C 107.374688 270.874656 118.657167 278.413367 131.073434 283.556353
C 143.489701 288.699339 156.798292 291.346582 170.237562 291.346582
C 183.676833 291.346582 196.985424 288.699339 209.401691 283.556353
C 221.817958 278.413367 233.100437 270.874656 242.603436 261.371656
C 252.106436 251.868657 259.645147 240.586178 264.788133 228.169911
C 269.931119 215.753644 272.578363 202.445053 272.578363 189.005782
" clip-path="url(#p8d7199f703)" style="fill: none; stroke: #b0b0b0; stroke-opacity: 0.17; stroke-width: 0.55; stroke-linecap: square"/>
     </g>
     <g id="text_10">
      <text style="font-size: 7.8px; font-family: 'DejaVu Serif'; text-anchor: start" x="264.788133" y="148.219498" transform="rotate(-0 264.788133 148.219498)">4</text>
     </g>
    </g>
    <g id="ytick_5">
     <g id="line2d_11">
      <path d="M 298.163563 189.005782
C 298.163563 172.206694 294.854508 155.570956 288.425776 140.050622
C 281.997043 124.530288 272.573654 110.42719 260.694905 98.54844
C 248.816155 86.669691 234.713057 77.246302 219.192723 70.817569
C 203.672389 64.388837 187.036651 61.079782 170.237563 61.079782
C 153.438474 61.079782 136.802736 64.388837 121.282402 70.817569
C 105.762068 77.246302 91.65897 86.669691 79.78022 98.54844
C 67.901471 110.42719 58.478082 124.530288 52.049349 140.050622
C 45.620617 155.570956 42.311563 172.206694 42.311563 189.005782
C 42.311563 205.804871 45.620617 222.440609 52.049349 237.960943
C 58.478082 253.481277 67.901471 267.584375 79.78022 279.463125
C 91.65897 291.341874 105.762068 300.765263 121.282402 307.193996
C 136.802736 313.622728 153.438474 316.931782 170.237562 316.931782
C 187.036651 316.931782 203.672389 313.622728 219.192723 307.193996
C 234.713057 300.765263 248.816155 291.341874 260.694905 279.463125
C 272.573654 267.584375 281.997043 253.481277 288.425776 237.960943
C 294.854508 222.440609 298.163563 205.804871 298.163563 189.005782
" clip-path="url(#p8d7199f703)" style="fill: none; stroke: #b0b0b0; stroke-opacity: 0.17; stroke-width: 0.55; stroke-linecap: square"/>
     </g>
     <g id="text_11">
      <text style="font-size: 7.8px; font-family: 'DejaVu Serif'; text-anchor: start" x="288.425776" y="138.428465" transform="rotate(-0 288.425776 138.428465)">5</text>
     </g>
    </g>
   </g>
   <g id="patch_3">
    <path d="M 246.993163 189.005782
L 195.822763 144.690916
L 157.444963 166.848349
L 144.652363 189.005782
L 157.444963 211.163216
L 208.615362 255.478082
z
" clip-path="url(#p8d7199f703)" style="fill: #5a6470; opacity: 0.045; stroke: #5a6470; stroke-linejoin: miter"/>
   </g>
   <g id="patch_4">
    <path d="M 298.163563 189.005782
L 195.822763 144.690916
L 144.652363 144.690916
L 144.652363 189.005782
L 157.444963 211.163216
L 208.615362 255.478082
z
" clip-path="url(#p8d7199f703)" style="fill: #7c8e77; opacity: 0.045; stroke: #7c8e77; stroke-linejoin: miter"/>
   </g>
   <g id="patch_5">
    <path d="M 272.578363 189.005782
L 195.822763 144.690916
L 157.444963 166.848349
L 67.896763 189.005782
L 144.652363 233.320649
L 195.822762 233.320649
z
" clip-path="url(#p8d7199f703)" style="fill: #988ba5; opacity: 0.045; stroke: #988ba5; stroke-linejoin: miter"/>
   </g>
   <g id="patch_6">
    <path d="M 246.993163 189.005782
L 208.615363 122.533483
L 157.444963 166.848349
L 42.311563 189.005782
L 157.444963 211.163216
L 208.615362 255.478082
z
" clip-path="url(#p8d7199f703)" style="fill: #c96a6a; opacity: 0.045; stroke: #c96a6a; stroke-linejoin: miter"/>
   </g>
   <g id="patch_7">
    <path d="M 221.407963 189.005782
L 221.407963 100.37605
L 157.444963 166.848349
L 144.652363 189.005782
L 119.067162 277.635515
L 221.407962 277.635515
z
" clip-path="url(#p8d7199f703)" style="fill: #b7a99e; opacity: 0.045; stroke: #b7a99e; stroke-linejoin: miter"/>
   </g>
   <g id="patch_8">
    <path d="M 298.163563 189.005782
L 221.407963 100.37605
L 106.274563 78.218617
L 67.896763 189.005782
L 119.067162 277.635515
L 221.407962 277.635515
z
" clip-path="url(#p8d7199f703)" style="fill: #41b6c4; opacity: 0.045; stroke: #41b6c4; stroke-linejoin: miter"/>
   </g>
   <g id="line2d_12">
    <path d="M 246.993163 189.005782
L 195.822763 144.690916
L 157.444963 166.848349
L 144.652363 189.005782
L 157.444963 211.163216
L 208.615362 255.478082
L 246.993163 189.005782
" clip-path="url(#p8d7199f703)" style="fill: none; stroke: #5a6470; stroke-width: 1.25; stroke-linecap: square"/>
    <defs>
     <path id="m94bcef46ff" d="M 0 1.4
C 0.371284 1.4 0.727412 1.252487 0.989949 0.989949
C 1.252487 0.727412 1.4 0.371284 1.4 0
C 1.4 -0.371284 1.252487 -0.727412 0.989949 -0.989949
C 0.727412 -1.252487 0.371284 -1.4 0 -1.4
C -0.371284 -1.4 -0.727412 -1.252487 -0.989949 -0.989949
C -1.252487 -0.727412 -1.4 -0.371284 -1.4 0
C -1.4 0.371284 -1.252487 0.727412 -0.989949 0.989949
C -0.727412 1.252487 -0.371284 1.4 0 1.4
z
" style="stroke: #5a6470"/>
    </defs>
    <g clip-path="url(#p8d7199f703)">
     <use xlink:href="#m94bcef46ff" x="246.993163" y="189.005782" style="fill: #5a6470; stroke: #5a6470"/>
     <use xlink:href="#m94bcef46ff" x="195.822763" y="144.690916" style="fill: #5a6470; stroke: #5a6470"/>
     <use xlink:href="#m94bcef46ff" x="157.444963" y="166.848349" style="fill: #5a6470; stroke: #5a6470"/>
     <use xlink:href="#m94bcef46ff" x="144.652363" y="189.005782" style="fill: #5a6470; stroke: #5a6470"/>
     <use xlink:href="#m94bcef46ff" x="157.444963" y="211.163216" style="fill: #5a6470; stroke: #5a6470"/>
     <use xlink:href="#m94bcef46ff" x="208.615362" y="255.478082" style="fill: #5a6470; stroke: #5a6470"/>
     <use xlink:href="#m94bcef46ff" x="246.993163" y="189.005782" style="fill: #5a6470; stroke: #5a6470"/>
    </g>
   </g>
   <g id="line2d_13">
    <path d="M 298.163563 189.005782
L 195.822763 144.690916
L 144.652363 144.690916
L 144.652363 189.005782
L 157.444963 211.163216
L 208.615362 255.478082
L 298.163563 189.005782
" clip-path="url(#p8d7199f703)" style="fill: none; stroke: #7c8e77; stroke-width: 1.25; stroke-linecap: square"/>
    <defs>
     <path id="mf77514ad33" d="M 0 1.4
C 0.371284 1.4 0.727412 1.252487 0.989949 0.989949
C 1.252487 0.727412 1.4 0.371284 1.4 0
C 1.4 -0.371284 1.252487 -0.727412 0.989949 -0.989949
C 0.727412 -1.252487 0.371284 -1.4 0 -1.4
C -0.371284 -1.4 -0.727412 -1.252487 -0.989949 -0.989949
C -1.252487 -0.727412 -1.4 -0.371284 -1.4 0
C -1.4 0.371284 -1.252487 0.727412 -0.989949 0.989949
C -0.727412 1.252487 -0.371284 1.4 0 1.4
z
" style="stroke: #7c8e77"/>
    </defs>
    <g clip-path="url(#p8d7199f703)">
     <use xlink:href="#mf77514ad33" x="298.163563" y="189.005782" style="fill: #7c8e77; stroke: #7c8e77"/>
     <use xlink:href="#mf77514ad33" x="195.822763" y="144.690916" style="fill: #7c8e77; stroke: #7c8e77"/>
     <use xlink:href="#mf77514ad33" x="144.652363" y="144.690916" style="fill: #7c8e77; stroke: #7c8e77"/>
     <use xlink:href="#mf77514ad33" x="144.652363" y="189.005782" style="fill: #7c8e77; stroke: #7c8e77"/>
     <use xlink:href="#mf77514ad33" x="157.444963" y="211.163216" style="fill: #7c8e77; stroke: #7c8e77"/>
     <use xlink:href="#mf77514ad33" x="208.615362" y="255.478082" style="fill: #7c8e77; stroke: #7c8e77"/>
     <use xlink:href="#mf77514ad33" x="298.163563" y="189.005782" style="fill: #7c8e77; stroke: #7c8e77"/>
    </g>
   </g>
   <g id="line2d_14">
    <path d="M 272.578363 189.005782
L 195.822763 144.690916
L 157.444963 166.848349
L 67.896763 189.005782
L 144.652363 233.320649
L 195.822762 233.320649
L 272.578363 189.005782
" clip-path="url(#p8d7199f703)" style="fill: none; stroke: #988ba5; stroke-width: 1.25; stroke-linecap: square"/>
    <defs>
     <path id="md2b2bacf80" d="M 0 1.4
C 0.371284 1.4 0.727412 1.252487 0.989949 0.989949
C 1.252487 0.727412 1.4 0.371284 1.4 0
C 1.4 -0.371284 1.252487 -0.727412 0.989949 -0.989949
C 0.727412 -1.252487 0.371284 -1.4 0 -1.4
C -0.371284 -1.4 -0.727412 -1.252487 -0.989949 -0.989949
C -1.252487 -0.727412 -1.4 -0.371284 -1.4 0
C -1.4 0.371284 -1.252487 0.727412 -0.989949 0.989949
C -0.727412 1.252487 -0.371284 1.4 0 1.4
z
" style="stroke: #988ba5"/>
    </defs>
    <g clip-path="url(#p8d7199f703)">
     <use xlink:href="#md2b2bacf80" x="272.578363" y="189.005782" style="fill: #988ba5; stroke: #988ba5"/>
     <use xlink:href="#md2b2bacf80" x="195.822763" y="144.690916" style="fill: #988ba5; stroke: #988ba5"/>
     <use xlink:href="#md2b2bacf80" x="157.444963" y="166.848349" style="fill: #988ba5; stroke: #988ba5"/>
     <use xlink:href="#md2b2bacf80" x="67.896763" y="189.005782" style="fill: #988ba5; stroke: #988ba5"/>
     <use xlink:href="#md2b2bacf80" x="144.652363" y="233.320649" style="fill: #988ba5; stroke: #988ba5"/>
     <use xlink:href="#md2b2bacf80" x="195.822762" y="233.320649" style="fill: #988ba5; stroke: #988ba5"/>
     <use xlink:href="#md2b2bacf80" x="272.578363" y="189.005782" style="fill: #988ba5; stroke: #988ba5"/>
    </g>
   </g>
   <g id="line2d_15">
    <path d="M 246.993163 189.005782
L 208.615363 122.533483
L 157.444963 166.848349
L 42.311563 189.005782
L 157.444963 211.163216
L 208.615362 255.478082
L 246.993163 189.005782
" clip-path="url(#p8d7199f703)" style="fill: none; stroke: #c96a6a; stroke-width: 1.25; stroke-linecap: square"/>
    <defs>
     <path id="ma610f9dd23" d="M 0 1.4
C 0.371284 1.4 0.727412 1.252487 0.989949 0.989949
C 1.252487 0.727412 1.4 0.371284 1.4 0
C 1.4 -0.371284 1.252487 -0.727412 0.989949 -0.989949
C 0.727412 -1.252487 0.371284 -1.4 0 -1.4
C -0.371284 -1.4 -0.727412 -1.252487 -0.989949 -0.989949
C -1.252487 -0.727412 -1.4 -0.371284 -1.4 0
C -1.4 0.371284 -1.252487 0.727412 -0.989949 0.989949
C -0.727412 1.252487 -0.371284 1.4 0 1.4
z
" style="stroke: #c96a6a"/>
    </defs>
    <g clip-path="url(#p8d7199f703)">
     <use xlink:href="#ma610f9dd23" x="246.993163" y="189.005782" style="fill: #c96a6a; stroke: #c96a6a"/>
     <use xlink:href="#ma610f9dd23" x="208.615363" y="122.533483" style="fill: #c96a6a; stroke: #c96a6a"/>
     <use xlink:href="#ma610f9dd23" x="157.444963" y="166.848349" style="fill: #c96a6a; stroke: #c96a6a"/>
     <use xlink:href="#ma610f9dd23" x="42.311563" y="189.005782" style="fill: #c96a6a; stroke: #c96a6a"/>
     <use xlink:href="#ma610f9dd23" x="157.444963" y="211.163216" style="fill: #c96a6a; stroke: #c96a6a"/>
     <use xlink:href="#ma610f9dd23" x="208.615362" y="255.478082" style="fill: #c96a6a; stroke: #c96a6a"/>
     <use xlink:href="#ma610f9dd23" x="246.993163" y="189.005782" style="fill: #c96a6a; stroke: #c96a6a"/>
    </g>
   </g>
   <g id="line2d_16">
    <path d="M 221.407963 189.005782
L 221.407963 100.37605
L 157.444963 166.848349
L 144.652363 189.005782
L 119.067162 277.635515
L 221.407962 277.635515
L 221.407963 189.005782
" clip-path="url(#p8d7199f703)" style="fill: none; stroke: #b7a99e; stroke-width: 1.25; stroke-linecap: square"/>
    <defs>
     <path id="m12df0b1e96" d="M 0 1.4
C 0.371284 1.4 0.727412 1.252487 0.989949 0.989949
C 1.252487 0.727412 1.4 0.371284 1.4 0
C 1.4 -0.371284 1.252487 -0.727412 0.989949 -0.989949
C 0.727412 -1.252487 0.371284 -1.4 0 -1.4
C -0.371284 -1.4 -0.727412 -1.252487 -0.989949 -0.989949
C -1.252487 -0.727412 -1.4 -0.371284 -1.4 0
C -1.4 0.371284 -1.252487 0.727412 -0.989949 0.989949
C -0.727412 1.252487 -0.371284 1.4 0 1.4
z
" style="stroke: #b7a99e"/>
    </defs>
    <g clip-path="url(#p8d7199f703)">
     <use xlink:href="#m12df0b1e96" x="221.407963" y="189.005782" style="fill: #b7a99e; stroke: #b7a99e"/>
     <use xlink:href="#m12df0b1e96" x="221.407963" y="100.37605" style="fill: #b7a99e; stroke: #b7a99e"/>
     <use xlink:href="#m12df0b1e96" x="157.444963" y="166.848349" style="fill: #b7a99e; stroke: #b7a99e"/>
     <use xlink:href="#m12df0b1e96" x="144.652363" y="189.005782" style="fill: #b7a99e; stroke: #b7a99e"/>
     <use xlink:href="#m12df0b1e96" x="119.067162" y="277.635515" style="fill: #b7a99e; stroke: #b7a99e"/>
     <use xlink:href="#m12df0b1e96" x="221.407962" y="277.635515" style="fill: #b7a99e; stroke: #b7a99e"/>
     <use xlink:href="#m12df0b1e96" x="221.407963" y="189.005782" style="fill: #b7a99e; stroke: #b7a99e"/>
    </g>
   </g>
   <g id="line2d_17">
    <path d="M 298.163563 189.005782
L 221.407963 100.37605
L 106.274563 78.218617
L 67.896763 189.005782
L 119.067162 277.635515
L 221.407962 277.635515
L 298.163563 189.005782
" clip-path="url(#p8d7199f703)" style="fill: none; stroke: #41b6c4; stroke-width: 1.25; stroke-linecap: square"/>
    <defs>
     <path id="mb5dd705678" d="M 0 1.4
C 0.371284 1.4 0.727412 1.252487 0.989949 0.989949
C 1.252487 0.727412 1.4 0.371284 1.4 0
C 1.4 -0.371284 1.252487 -0.727412 0.989949 -0.989949
C 0.727412 -1.252487 0.371284 -1.4 0 -1.4
C -0.371284 -1.4 -0.727412 -1.252487 -0.989949 -0.989949
C -1.252487 -0.727412 -1.4 -0.371284 -1.4 0
C -1.4 0.371284 -1.252487 0.727412 -0.989949 0.989949
C -0.727412 1.252487 -0.371284 1.4 0 1.4
z
" style="stroke: #41b6c4"/>
    </defs>
    <g clip-path="url(#p8d7199f703)">
     <use xlink:href="#mb5dd705678" x="298.163563" y="189.005782" style="fill: #41b6c4; stroke: #41b6c4"/>
     <use xlink:href="#mb5dd705678" x="221.407963" y="100.37605" style="fill: #41b6c4; stroke: #41b6c4"/>
     <use xlink:href="#mb5dd705678" x="106.274563" y="78.218617" style="fill: #41b6c4; stroke: #41b6c4"/>
     <use xlink:href="#mb5dd705678" x="67.896763" y="189.005782" style="fill: #41b6c4; stroke: #41b6c4"/>
     <use xlink:href="#mb5dd705678" x="119.067162" y="277.635515" style="fill: #41b6c4; stroke: #41b6c4"/>
     <use xlink:href="#mb5dd705678" x="221.407962" y="277.635515" style="fill: #41b6c4; stroke: #41b6c4"/>
     <use xlink:href="#mb5dd705678" x="298.163563" y="189.005782" style="fill: #41b6c4; stroke: #41b6c4"/>
    </g>
   </g>
   <g id="patch_9">
    <path d="M 298.163563 189.005782
C 298.163563 172.206694 294.854508 155.570956 288.425776 140.050622
C 281.997043 124.530288 272.573654 110.42719 260.694905 98.54844
C 248.816155 86.669691 234.713057 77.246302 219.192723 70.817569
C 203.672389 64.388837 187.036651 61.079782 170.237563 61.079782
C 153.438474 61.079782 136.802736 64.388837 121.282402 70.817569
C 105.762068 77.246302 91.65897 86.669691 79.78022 98.54844
C 67.901471 110.42719 58.478082 124.530288 52.049349 140.050622
C 45.620617 155.570956 42.311563 172.206694 42.311563 189.005782
C 42.311563 205.804871 45.620617 222.440609 52.049349 237.960943
C 58.478082 253.481277 67.901471 267.584375 79.78022 279.463125
C 91.65897 291.341874 105.762068 300.765263 121.282402 307.193996
C 136.802736 313.622728 153.438474 316.931782 170.237562 316.931782
C 187.036651 316.931782 203.672389 313.622728 219.192723 307.193996
C 234.713057 300.765263 248.816155 291.341874 260.694905 279.463125
C 272.573654 267.584375 281.997043 253.481277 288.425776 237.960943
C 294.854508 222.440609 298.163563 205.804871 298.163563 189.005782
" style="fill: none; stroke: #000000; stroke-width: 0.8; stroke-linejoin: miter; stroke-linecap: square"/>
   </g>
   <g id="text_12">
    <text style="font-weight: 700; font-size: 10.5px; font-family: 'DejaVu Serif'" transform="translate(110.887133 15.178359)">Related-Work Radar</text>
    <text style="font-weight: 700; font-size: 10.5px; font-family: 'DejaVu Serif'" transform="translate(99.965492 26.936062)">Qualitative context only</text>
   </g>
   <g id="legend_1">
    <g id="line2d_18">
     <path d="M 324.931723 162.701095
L 331.931723 162.701095
L 338.931723 162.701095
" style="fill: none; stroke: #5a6470; stroke-width: 1.25; stroke-linecap: square"/>
     <g>
      <use xlink:href="#m94bcef46ff" x="331.931723" y="162.701095" style="fill: #5a6470; stroke: #5a6470"/>
     </g>
    </g>
    <g id="text_13">
     <text style="font-size: 7px; font-family: 'DejaVu Serif'; text-anchor: start" x="344.531723" y="165.151095" transform="rotate(-0 344.531723 165.151095)">ASTRA</text>
    </g>
    <g id="line2d_19">
     <path d="M 324.931723 172.975782
L 331.931723 172.975782
L 338.931723 172.975782
" style="fill: none; stroke: #7c8e77; stroke-width: 1.25; stroke-linecap: square"/>
     <g>
      <use xlink:href="#mf77514ad33" x="331.931723" y="172.975782" style="fill: #7c8e77; stroke: #7c8e77"/>
     </g>
    </g>
    <g id="text_14">
     <text style="font-size: 7px; font-family: 'DejaVu Serif'; text-anchor: start" x="344.531723" y="175.425782" transform="rotate(-0 344.531723 175.425782)">Lightening</text>
    </g>
    <g id="line2d_20">
     <path d="M 324.931723 183.350001
L 331.931723 183.350001
L 338.931723 183.350001
" style="fill: none; stroke: #988ba5; stroke-width: 1.25; stroke-linecap: square"/>
     <g>
      <use xlink:href="#md2b2bacf80" x="331.931723" y="183.350001" style="fill: #988ba5; stroke: #988ba5"/>
     </g>
    </g>
    <g id="text_15">
     <text style="font-size: 7px; font-family: 'DejaVu Serif'; text-anchor: start" x="344.531723" y="185.800001" transform="rotate(-0 344.531723 185.800001)">Opto-ViT</text>
    </g>
    <g id="line2d_21">
     <path d="M 324.931723 193.624689
L 331.931723 193.624689
L 338.931723 193.624689
" style="fill: none; stroke: #c96a6a; stroke-width: 1.25; stroke-linecap: square"/>
     <g>
      <use xlink:href="#ma610f9dd23" x="331.931723" y="193.624689" style="fill: #c96a6a; stroke: #c96a6a"/>
     </g>
    </g>
    <g id="text_16">
     <text style="font-size: 7px; font-family: 'DejaVu Serif'; text-anchor: start" x="344.531723" y="196.074689" transform="rotate(-0 344.531723 196.074689)">SCATTER</text>
    </g>
    <g id="line2d_22">
     <path d="M 324.931723 203.899376
L 331.931723 203.899376
L 338.931723 203.899376
" style="fill: none; stroke: #b7a99e; stroke-width: 1.25; stroke-linecap: square"/>
     <g>
      <use xlink:href="#m12df0b1e96" x="331.931723" y="203.899376" style="fill: #b7a99e; stroke: #b7a99e"/>
     </g>
    </g>
    <g id="text_17">
     <text style="font-size: 7px; font-family: 'DejaVu Serif'; text-anchor: start" x="344.531723" y="206.349376" transform="rotate(-0 344.531723 206.349376)">ASCEND</text>
    </g>
    <g id="line2d_23">
     <path d="M 324.931723 214.174064
L 331.931723 214.174064
L 338.931723 214.174064
" style="fill: none; stroke: #41b6c4; stroke-width: 1.25; stroke-linecap: square"/>
     <g>
      <use xlink:href="#mb5dd705678" x="331.931723" y="214.174064" style="fill: #41b6c4; stroke: #41b6c4"/>
     </g>
    </g>
    <g id="text_18">
     <text style="font-size: 7px; font-family: 'DejaVu Serif'; text-anchor: start" x="344.531723" y="216.624064" transform="rotate(-0 344.531723 216.624064)">Masking-the-Lag</text>
    </g>
   </g>
  </g>
  <g id="text_19">
   <text style="font-size: 7px; font-family: 'DejaVu Serif'; text-anchor: middle; fill: #3e4448" x="205.373562" y="358.01847" transform="rotate(-0 205.373562 358.01847)">Qualitative related-work positioning only; not benchmark-equivalent empirical superiority evidence.</text>
  </g>
 </g>
 <defs>
  <clipPath id="p8d7199f703">
   <path d="M 298.163563 189.005782
C 298.163563 172.206694 294.854508 155.570956 288.425776 140.050622
C 281.997043 124.530288 272.573654 110.42719 260.694905 98.54844
C 248.816155 86.669691 234.713057 77.246302 219.192723 70.817569
C 203.672389 64.388837 187.036651 61.079782 170.237563 61.079782
C 153.438474 61.079782 136.802736 64.388837 121.282402 70.817569
C 105.762068 77.246302 91.65897 86.669691 79.78022 98.54844
C 67.901471 110.42719 58.478082 124.530288 52.049349 140.050622
C 45.620617 155.570956 42.311562 172.206694 42.311562 189.005782
C 42.311562 205.804871 45.620617 222.440609 52.049349 237.960943
C 58.478082 253.481277 67.901471 267.584375 79.78022 279.463125
C 91.65897 291.341874 105.762068 300.765263 121.282402 307.193996
C 136.802736 313.622728 153.438474 316.931782 170.237562 316.931782
C 187.036651 316.931782 203.672389 313.622728 219.192723 307.193996
C 234.713057 300.765263 248.816155 291.341874 260.694905 279.463125
C 272.573654 267.584375 281.997043 253.481277 288.425776 237.960943
C 294.854508 222.440609 298.163563 205.804871 298.163563 189.005783
M 170.237563 189.005782
C 170.237563 189.005782 170.237563 189.005782 170.237563 189.005782
C 170.237563 189.005782 170.237563 189.005782 170.237563 189.005782
C 170.237563 189.005782 170.237563 189.005782 170.237563 189.005782
C 170.237563 189.005782 170.237563 189.005782 170.237563 189.005782
C 170.237563 189.005782 170.237563 189.005782 170.237563 189.005782
C 170.237563 189.005782 170.237563 189.005782 170.237563 189.005782
C 170.237563 189.005782 170.237563 189.005782 170.237563 189.005782
C 170.237563 189.005782 170.237563 189.005782 170.237563 189.005782
C 170.237563 189.005782 170.237563 189.005782 170.237563 189.005782
C 170.237563 189.005782 170.237563 189.005782 170.237563 189.005782
C 170.237563 189.005782 170.237563 189.005782 170.237563 189.005782
C 170.237563 189.005782 170.237563 189.005782 170.237563 189.005782
C 170.237563 189.005782 170.237563 189.005782 170.237563 189.005782
C 170.237563 189.005782 170.237563 189.005782 170.237563 189.005782
C 170.237563 189.005782 170.237563 189.005782 170.237563 189.005782
C 170.237563 189.005782 170.237563 189.005782 170.237563 189.005782
z
"/>
  </clipPath>
 </defs>
</svg>
