<?xml version="1.0" encoding="utf-8" standalone="no"?>
<!DOCTYPE svg PUBLIC "-//W3C//DTD SVG 1.1//EN"
  "http://www.w3.org/Graphics/SVG/1.1/DTD/svg11.dtd">
<svg xmlns:xlink="http://www.w3.org/1999/xlink" width="452.344766pt" height="218.253304pt" viewBox="0 0 452.344766 218.253304" xmlns="http://www.w3.org/2000/svg" version="1.1">
 <metadata>
  <rdf:RDF xmlns:dc="http://purl.org/dc/elements/1.1/" xmlns:cc="http://creativecommons.org/ns#" xmlns:rdf="http://www.w3.org/1999/02/22-rdf-syntax-ns#">
   <cc:Work>
    <dc:type rdf:resource="http://purl.org/dc/dcmitype/StillImage"/>
    <dc:date>2026-04-30T21:29:34.245230</dc:date>
    <dc:format>image/svg+xml</dc:format>
    <dc:creator>
     <cc:Agent>
      <dc:title>Matplotlib v3.10.9, https://matplotlib.org/</dc:title>
     </cc:Agent>
    </dc:creator>
   </cc:Work>
  </rdf:RDF>
 </metadata>
 <defs>
  <style type="text/css">*{stroke-linejoin: round; stroke-linecap: butt}</style>
 </defs>
 <g id="figure_1">
  <g id="patch_1">
   <path d="M 0 218.253304
L 452.344766 218.253304
L 452.344766 0
L 0 0
z
" style="fill: #ffffff"/>
  </g>
  <g id="axes_1">
   <g id="patch_2">
    <path d="M 36.472766 168.234375
L 445.144766 168.234375
L 445.144766 21.102375
L 36.472766 21.102375
z
" style="fill: #ffffff"/>
   </g>
   <g id="matplotlib.axis_1">
    <g id="xtick_1">
     <g id="line2d_1">
      <path d="M 55.048766 168.234375
L 55.048766 21.102375
" clip-path="url(#p8136049f89)" style="fill: none; stroke: #b0b0b0; stroke-opacity: 0.17; stroke-width: 0.55; stroke-linecap: square"/>
     </g>
     <g id="line2d_2">
      <defs>
       <path id="mfe1ce4caaf" d="M 0 0
L 0 3.5
" style="stroke: #000000; stroke-width: 0.8"/>
      </defs>
      <g>
       <use xlink:href="#mfe1ce4caaf" x="55.048766" y="168.234375" style="stroke: #000000; stroke-width: 0.8"/>
      </g>
     </g>
     <g id="text_1">
      <text style="font-size: 7.8px; font-family: 'DejaVu Serif'" transform="translate(29.271968 192.306102) rotate(-25)">ASTRA</text>
     </g>
    </g>
    <g id="xtick_2">
     <g id="line2d_3">
      <path d="M 129.352766 168.234375
L 129.352766 21.102375
" clip-path="url(#p8136049f89)" style="fill: none; stroke: #b0b0b0; stroke-opacity: 0.17; stroke-width: 0.55; stroke-linecap: square"/>
     </g>
     <g id="line2d_4">
      <g>
       <use xlink:href="#mfe1ce4caaf" x="129.352766" y="168.234375" style="stroke: #000000; stroke-width: 0.8"/>
      </g>
     </g>
     <g id="text_2">
      <text style="font-size: 7.8px; font-family: 'DejaVu Serif'" transform="translate(105.630455 191.34808) rotate(-25)">MESO</text>
     </g>
    </g>
    <g id="xtick_3">
     <g id="line2d_5">
      <path d="M 203.656766 168.234375
L 203.656766 21.102375
" clip-path="url(#p8136049f89)" style="fill: none; stroke: #b0b0b0; stroke-opacity: 0.17; stroke-width: 0.55; stroke-linecap: square"/>
     </g>
     <g id="line2d_6">
      <g>
       <use xlink:href="#mfe1ce4caaf" x="203.656766" y="168.234375" style="stroke: #000000; stroke-width: 0.8"/>
      </g>
     </g>
     <g id="text_3">
      <text style="font-size: 7.8px; font-family: 'DejaVu Serif'" transform="translate(181.41236 190.658921) rotate(-25)">HOPS</text>
     </g>
    </g>
    <g id="xtick_4">
     <g id="line2d_7">
      <path d="M 277.960766 168.234375
L 277.960766 21.102375
" clip-path="url(#p8136049f89)" style="fill: none; stroke: #b0b0b0; stroke-opacity: 0.17; stroke-width: 0.55; stroke-linecap: square"/>
     </g>
     <g id="line2d_8">
      <g>
       <use xlink:href="#mfe1ce4caaf" x="277.960766" y="168.234375" style="stroke: #000000; stroke-width: 0.8"/>
      </g>
     </g>
     <g id="text_4">
      <text style="font-size: 7.8px; font-family: 'DejaVu Serif'" transform="translate(261.731808 187.853872) rotate(-25)">DET</text>
     </g>
    </g>
    <g id="xtick_5">
     <g id="line2d_9">
      <path d="M 352.264766 168.234375
L 352.264766 21.102375
" clip-path="url(#p8136049f89)" style="fill: none; stroke: #b0b0b0; stroke-opacity: 0.17; stroke-width: 0.55; stroke-linecap: square"/>
     </g>
     <g id="line2d_10">
      <g>
       <use xlink:href="#mfe1ce4caaf" x="352.264766" y="168.234375" style="stroke: #000000; stroke-width: 0.8"/>
      </g>
     </g>
     <g id="text_5">
      <text style="font-size: 7.8px; font-family: 'DejaVu Serif'" transform="translate(322.194534 194.308164) rotate(-25)">SPARSE</text>
     </g>
    </g>
    <g id="xtick_6">
     <g id="line2d_11">
      <path d="M 426.568766 168.234375
L 426.568766 21.102375
" clip-path="url(#p8136049f89)" style="fill: none; stroke: #b0b0b0; stroke-opacity: 0.17; stroke-width: 0.55; stroke-linecap: square"/>
     </g>
     <g id="line2d_12">
      <g>
       <use xlink:href="#mfe1ce4caaf" x="426.568766" y="168.234375" style="stroke: #000000; stroke-width: 0.8"/>
      </g>
     </g>
     <g id="text_6">
      <text style="font-size: 7.8px; font-family: 'DejaVu Serif'" transform="translate(395.147653 194.93809) rotate(-25)">FULLER</text>
     </g>
    </g>
   </g>
   <g id="matplotlib.axis_2">
    <g id="ytick_1">
     <g id="line2d_13">
      <path d="M 36.472766 165.397063
L 445.144766 165.397063
" clip-path="url(#p8136049f89)" style="fill: none; stroke: #b0b0b0; stroke-opacity: 0.17; stroke-width: 0.55; stroke-linecap: square"/>
     </g>
     <g id="line2d_14">
      <defs>
       <path id="m4b89cd44bd" d="M 0 0
L -3.5 0
" style="stroke: #000000; stroke-width: 0.8"/>
      </defs>
      <g>
       <use xlink:href="#m4b89cd44bd" x="36.472766" y="165.397063" style="stroke: #000000; stroke-width: 0.8"/>
      </g>
     </g>
     <g id="text_7">
      <text style="font-size: 7.8px; font-family: 'DejaVu Serif'; text-anchor: end" x="29.472766" y="168.360453" transform="rotate(-0 29.472766 168.360453)">20</text>
     </g>
    </g>
    <g id="ytick_2">
     <g id="line2d_15">
      <path d="M 36.472766 138.574295
L 445.144766 138.574295
" clip-path="url(#p8136049f89)" style="fill: none; stroke: #b0b0b0; stroke-opacity: 0.17; stroke-width: 0.55; stroke-linecap: square"/>
     </g>
     <g id="line2d_16">
      <g>
       <use xlink:href="#m4b89cd44bd" x="36.472766" y="138.574295" style="stroke: #000000; stroke-width: 0.8"/>
      </g>
     </g>
     <g id="text_8">
      <text style="font-size: 7.8px; font-family: 'DejaVu Serif'; text-anchor: end" x="29.472766" y="141.537686" transform="rotate(-0 29.472766 141.537686)">25</text>
     </g>
    </g>
    <g id="ytick_3">
     <g id="line2d_17">
      <path d="M 36.472766 111.751527
L 445.144766 111.751527
" clip-path="url(#p8136049f89)" style="fill: none; stroke: #b0b0b0; stroke-opacity: 0.17; stroke-width: 0.55; stroke-linecap: square"/>
     </g>
     <g id="line2d_18">
      <g>
       <use xlink:href="#m4b89cd44bd" x="36.472766" y="111.751527" style="stroke: #000000; stroke-width: 0.8"/>
      </g>
     </g>
     <g id="text_9">
      <text style="font-size: 7.8px; font-family: 'DejaVu Serif'; text-anchor: end" x="29.472766" y="114.714918" transform="rotate(-0 29.472766 114.714918)">30</text>
     </g>
    </g>
    <g id="ytick_4">
     <g id="line2d_19">
      <path d="M 36.472766 84.92876
L 445.144766 84.92876
" clip-path="url(#p8136049f89)" style="fill: none; stroke: #b0b0b0; stroke-opacity: 0.17; stroke-width: 0.55; stroke-linecap: square"/>
     </g>
     <g id="line2d_20">
      <g>
       <use xlink:href="#m4b89cd44bd" x="36.472766" y="84.92876" style="stroke: #000000; stroke-width: 0.8"/>
      </g>
     </g>
     <g id="text_10">
      <text style="font-size: 7.8px; font-family: 'DejaVu Serif'; text-anchor: end" x="29.472766" y="87.89215" transform="rotate(-0 29.472766 87.89215)">35</text>
     </g>
    </g>
    <g id="ytick_5">
     <g id="line2d_21">
      <path d="M 36.472766 58.105992
L 445.144766 58.105992
" clip-path="url(#p8136049f89)" style="fill: none; stroke: #b0b0b0; stroke-opacity: 0.17; stroke-width: 0.55; stroke-linecap: square"/>
     </g>
     <g id="line2d_22">
      <g>
       <use xlink:href="#m4b89cd44bd" x="36.472766" y="58.105992" style="stroke: #000000; stroke-width: 0.8"/>
      </g>
     </g>
     <g id="text_11">
      <text style="font-size: 7.8px; font-family: 'DejaVu Serif'; text-anchor: end" x="29.472766" y="61.069383" transform="rotate(-0 29.472766 61.069383)">40</text>
     </g>
    </g>
    <g id="ytick_6">
     <g id="line2d_23">
      <path d="M 36.472766 31.283225
L 445.144766 31.283225
" clip-path="url(#p8136049f89)" style="fill: none; stroke: #b0b0b0; stroke-opacity: 0.17; stroke-width: 0.55; stroke-linecap: square"/>
     </g>
     <g id="line2d_24">
      <g>
       <use xlink:href="#m4b89cd44bd" x="36.472766" y="31.283225" style="stroke: #000000; stroke-width: 0.8"/>
      </g>
     </g>
     <g id="text_12">
      <text style="font-size: 7.8px; font-family: 'DejaVu Serif'; text-anchor: end" x="29.472766" y="34.246615" transform="rotate(-0 29.472766 34.246615)">45</text>
     </g>
    </g>
    <g id="text_13">
     <text style="font-size: 8.5px; font-family: 'DejaVu Serif'; text-anchor: middle" x="13.658672" y="94.668375" transform="rotate(-90 13.658672 94.668375)">Top-1 accuracy (%)</text>
    </g>
   </g>
   <g id="LineCollection_1">
    <path d="M 55.048766 30.973153
L 55.048766 29.685661
" clip-path="url(#p8136049f89)" style="fill: none; stroke: #666666; stroke-width: 0.85"/>
    <path d="M 129.352766 127.523315
L 129.352766 125.687565
" clip-path="url(#p8136049f89)" style="fill: none; stroke: #666666; stroke-width: 0.85"/>
    <path d="M 203.656766 127.523315
L 203.656766 126.950917
" clip-path="url(#p8136049f89)" style="fill: none; stroke: #666666; stroke-width: 0.85"/>
    <path d="M 277.960766 162.869821
L 277.960766 162.071039
" clip-path="url(#p8136049f89)" style="fill: none; stroke: #666666; stroke-width: 0.85"/>
    <path d="M 352.264766 126.939115
L 352.264766 126.486347
" clip-path="url(#p8136049f89)" style="fill: none; stroke: #666666; stroke-width: 0.85"/>
    <path d="M 426.568766 162.786134
L 426.568766 161.450897
" clip-path="url(#p8136049f89)" style="fill: none; stroke: #666666; stroke-width: 0.85"/>
   </g>
   <g id="line2d_25">
    <defs>
     <path id="mf03dc58885" d="M 3 0
L -3 -0
" style="stroke: #666666"/>
    </defs>
    <g clip-path="url(#p8136049f89)">
     <use xlink:href="#mf03dc58885" x="55.048766" y="30.973153" style="fill: #333333; stroke: #666666"/>
     <use xlink:href="#mf03dc58885" x="129.352766" y="127.523315" style="fill: #333333; stroke: #666666"/>
     <use xlink:href="#mf03dc58885" x="203.656766" y="127.523315" style="fill: #333333; stroke: #666666"/>
     <use xlink:href="#mf03dc58885" x="277.960766" y="162.869821" style="fill: #333333; stroke: #666666"/>
     <use xlink:href="#mf03dc58885" x="352.264766" y="126.939115" style="fill: #333333; stroke: #666666"/>
     <use xlink:href="#mf03dc58885" x="426.568766" y="162.786134" style="fill: #333333; stroke: #666666"/>
    </g>
   </g>
   <g id="line2d_26">
    <g clip-path="url(#p8136049f89)">
     <use xlink:href="#mf03dc58885" x="55.048766" y="29.685661" style="fill: #333333; stroke: #666666"/>
     <use xlink:href="#mf03dc58885" x="129.352766" y="125.687565" style="fill: #333333; stroke: #666666"/>
     <use xlink:href="#mf03dc58885" x="203.656766" y="126.950917" style="fill: #333333; stroke: #666666"/>
     <use xlink:href="#mf03dc58885" x="277.960766" y="162.071039" style="fill: #333333; stroke: #666666"/>
     <use xlink:href="#mf03dc58885" x="352.264766" y="126.486347" style="fill: #333333; stroke: #666666"/>
     <use xlink:href="#mf03dc58885" x="426.568766" y="161.450897" style="fill: #333333; stroke: #666666"/>
    </g>
   </g>
   <g id="patch_3">
    <path d="M 36.472766 168.234375
L 36.472766 21.102375
" style="fill: none; stroke: #000000; stroke-width: 0.8; stroke-linejoin: miter; stroke-linecap: square"/>
   </g>
   <g id="patch_4">
    <path d="M 36.472766 168.234375
L 445.144766 168.234375
" style="fill: none; stroke: #000000; stroke-width: 0.8; stroke-linejoin: miter; stroke-linecap: square"/>
   </g>
   <g id="text_14">
    <text style="font-size: 7.3px; font-family: 'DejaVu Serif'; text-anchor: middle" x="240.808766" y="209.431335" transform="rotate(-0 240.808766 209.431335)">Error bars and inset report max-min Top-1 ranges from the current Phase4 intake summary.</text>
   </g>
   <g id="text_15">
    <text style="font-weight: 700; font-size: 10.4px; font-family: 'DejaVu Serif'; text-anchor: middle" x="240.808766" y="15.102375" transform="rotate(-0 240.808766 15.102375)">Seed/Range Variability</text>
   </g>
   <g id="PathCollection_1">
    <defs>
     <path id="m36e1f8f956" d="M 0 4.1833
C 1.109424 4.1833 2.173559 3.742521 2.95804 2.95804
C 3.742521 2.173559 4.1833 1.109424 4.1833 0
C 4.1833 -1.109424 3.742521 -2.173559 2.95804 -2.95804
C 2.173559 -3.742521 1.109424 -4.1833 0 -4.1833
C -1.109424 -4.1833 -2.173559 -3.742521 -2.95804 -2.95804
C -3.742521 -2.173559 -4.1833 -1.109424 -4.1833 0
C -4.1833 1.109424 -3.742521 2.173559 -2.95804 2.95804
C -2.173559 3.742521 -1.109424 4.1833 0 4.1833
z
" style="stroke: #000000; stroke-width: 0.5"/>
    </defs>
    <g clip-path="url(#p8136049f89)">
     <use xlink:href="#m36e1f8f956" x="55.048766" y="30.309558" style="fill: #5a6470; stroke: #000000; stroke-width: 0.5"/>
    </g>
   </g>
   <g id="PathCollection_2">
    <defs>
     <path id="me9632e7e59" d="M 0 4.1833
C 1.109424 4.1833 2.173559 3.742521 2.95804 2.95804
C 3.742521 2.173559 4.1833 1.109424 4.1833 0
C 4.1833 -1.109424 3.742521 -2.173559 2.95804 -2.95804
C 2.173559 -3.742521 1.109424 -4.1833 0 -4.1833
C -1.109424 -4.1833 -2.173559 -3.742521 -2.95804 -2.95804
C -3.742521 -2.173559 -4.1833 -1.109424 -4.1833 0
C -4.1833 1.109424 -3.742521 2.173559 -2.95804 2.95804
C -2.173559 3.742521 -1.109424 4.1833 0 4.1833
z
" style="stroke: #000000; stroke-width: 0.5"/>
    </defs>
    <g clip-path="url(#p8136049f89)">
     <use xlink:href="#me9632e7e59" x="129.352766" y="126.720778" style="fill: #8b9daa; stroke: #000000; stroke-width: 0.5"/>
    </g>
   </g>
   <g id="PathCollection_3">
    <defs>
     <path id="m704ad16aa8" d="M 0 4.1833
C 1.109424 4.1833 2.173559 3.742521 2.95804 2.95804
C 3.742521 2.173559 4.1833 1.109424 4.1833 0
C 4.1833 -1.109424 3.742521 -2.173559 2.95804 -2.95804
C 2.173559 -3.742521 1.109424 -4.1833 0 -4.1833
C -1.109424 -4.1833 -2.173559 -3.742521 -2.95804 -2.95804
C -3.742521 -2.173559 -4.1833 -1.109424 -4.1833 0
C -4.1833 1.109424 -3.742521 2.173559 -2.95804 2.95804
C -2.173559 3.742521 -1.109424 4.1833 0 4.1833
z
" style="stroke: #000000; stroke-width: 0.5"/>
    </defs>
    <g clip-path="url(#p8136049f89)">
     <use xlink:href="#m704ad16aa8" x="203.656766" y="127.233092" style="fill: #7c8e77; stroke: #000000; stroke-width: 0.5"/>
    </g>
   </g>
   <g id="PathCollection_4">
    <defs>
     <path id="m2d5b227e88" d="M 0 4.1833
C 1.109424 4.1833 2.173559 3.742521 2.95804 2.95804
C 3.742521 2.173559 4.1833 1.109424 4.1833 0
C 4.1833 -1.109424 3.742521 -2.173559 2.95804 -2.95804
C 2.173559 -3.742521 1.109424 -4.1833 0 -4.1833
C -1.109424 -4.1833 -2.173559 -3.742521 -2.95804 -2.95804
C -3.742521 -2.173559 -4.1833 -1.109424 -4.1833 0
C -4.1833 1.109424 -3.742521 2.173559 -2.95804 2.95804
C -2.173559 3.742521 -1.109424 4.1833 0 4.1833
z
" style="stroke: #000000; stroke-width: 0.5"/>
    </defs>
    <g clip-path="url(#p8136049f89)">
     <use xlink:href="#m2d5b227e88" x="277.960766" y="162.428855" style="fill: #b7a99e; stroke: #000000; stroke-width: 0.5"/>
    </g>
   </g>
   <g id="PathCollection_5">
    <defs>
     <path id="mda63630a8f" d="M -2.436699 4.873397
L 0 2.436699
L 2.436699 4.873397
L 4.873397 2.436699
L 2.436699 0
L 4.873397 -2.436699
L 2.436699 -4.873397
L 0 -2.436699
L -2.436699 -4.873397
L -4.873397 -2.436699
L -2.436699 0
L -4.873397 2.436699
z
" style="stroke: #c96a6a; stroke-width: 1.6"/>
    </defs>
    <g clip-path="url(#p8136049f89)">
     <use xlink:href="#mda63630a8f" x="352.264766" y="126.780324" style="fill: #ffffff; stroke: #c96a6a; stroke-width: 1.6"/>
    </g>
   </g>
   <g id="PathCollection_6">
    <defs>
     <path id="m9cc950b76a" d="M -2.436699 4.873397
L 0 2.436699
L 2.436699 4.873397
L 4.873397 2.436699
L 2.436699 0
L 4.873397 -2.436699
L 2.436699 -4.873397
L 0 -2.436699
L -2.436699 -4.873397
L -4.873397 -2.436699
L -2.436699 0
L -4.873397 2.436699
z
" style="stroke: #988ba5; stroke-width: 1.6"/>
    </defs>
    <g clip-path="url(#p8136049f89)">
     <use xlink:href="#m9cc950b76a" x="426.568766" y="161.932098" style="fill: #ffffff; stroke: #988ba5; stroke-width: 1.6"/>
    </g>
   </g>
   <g id="axes_2">
    <g id="patch_5">
     <path d="M 273.502526 94.668375
L 424.711166 94.668375
L 424.711166 41.700855
L 273.502526 41.700855
z
" style="fill: #ffffff"/>
    </g>
    <g id="matplotlib.axis_3">
     <g id="xtick_7">
      <g id="line2d_27">
       <path d="M 273.502526 94.668375
L 273.502526 41.700855
" clip-path="url(#pea458b8f07)" style="fill: none; stroke: #b0b0b0; stroke-opacity: 0.18; stroke-width: 0.55; stroke-linecap: square"/>
      </g>
      <g id="line2d_28">
       <g>
        <use xlink:href="#mfe1ce4caaf" x="273.502526" y="94.668375" style="stroke: #000000; stroke-width: 0.8"/>
       </g>
      </g>
      <g id="text_16">
       <text style="font-size: 7.8px; font-family: 'DejaVu Serif'; text-anchor: middle" x="273.502526" y="107.595156" transform="rotate(-0 273.502526 107.595156)">0.0</text>
      </g>
     </g>
     <g id="xtick_8">
      <g id="line2d_29">
       <path d="M 306.478057 94.668375
L 306.478057 41.700855
" clip-path="url(#pea458b8f07)" style="fill: none; stroke: #b0b0b0; stroke-opacity: 0.18; stroke-width: 0.55; stroke-linecap: square"/>
      </g>
      <g id="line2d_30">
       <g>
        <use xlink:href="#mfe1ce4caaf" x="306.478057" y="94.668375" style="stroke: #000000; stroke-width: 0.8"/>
       </g>
      </g>
      <g id="text_17">
       <text style="font-size: 7.8px; font-family: 'DejaVu Serif'; text-anchor: middle" x="306.478057" y="107.595156" transform="rotate(-0 306.478057 107.595156)">0.1</text>
      </g>
     </g>
     <g id="xtick_9">
      <g id="line2d_31">
       <path d="M 339.453589 94.668375
L 339.453589 41.700855
" clip-path="url(#pea458b8f07)" style="fill: none; stroke: #b0b0b0; stroke-opacity: 0.18; stroke-width: 0.55; stroke-linecap: square"/>
      </g>
      <g id="line2d_32">
       <g>
        <use xlink:href="#mfe1ce4caaf" x="339.453589" y="94.668375" style="stroke: #000000; stroke-width: 0.8"/>
       </g>
      </g>
      <g id="text_18">
       <text style="font-size: 7.8px; font-family: 'DejaVu Serif'; text-anchor: middle" x="339.453589" y="107.595156" transform="rotate(-0 339.453589 107.595156)">0.2</text>
      </g>
     </g>
     <g id="xtick_10">
      <g id="line2d_33">
       <path d="M 372.42912 94.668375
L 372.42912 41.700855
" clip-path="url(#pea458b8f07)" style="fill: none; stroke: #b0b0b0; stroke-opacity: 0.18; stroke-width: 0.55; stroke-linecap: square"/>
      </g>
      <g id="line2d_34">
       <g>
        <use xlink:href="#mfe1ce4caaf" x="372.42912" y="94.668375" style="stroke: #000000; stroke-width: 0.8"/>
       </g>
      </g>
      <g id="text_19">
       <text style="font-size: 7.8px; font-family: 'DejaVu Serif'; text-anchor: middle" x="372.42912" y="107.595156" transform="rotate(-0 372.42912 107.595156)">0.3</text>
      </g>
     </g>
     <g id="xtick_11">
      <g id="line2d_35">
       <path d="M 405.404651 94.668375
L 405.404651 41.700855
" clip-path="url(#pea458b8f07)" style="fill: none; stroke: #b0b0b0; stroke-opacity: 0.18; stroke-width: 0.55; stroke-linecap: square"/>
      </g>
      <g id="line2d_36">
       <g>
        <use xlink:href="#mfe1ce4caaf" x="405.404651" y="94.668375" style="stroke: #000000; stroke-width: 0.8"/>
       </g>
      </g>
      <g id="text_20">
       <text style="font-size: 7.8px; font-family: 'DejaVu Serif'; text-anchor: middle" x="405.404651" y="107.595156" transform="rotate(-0 405.404651 107.595156)">0.4</text>
      </g>
     </g>
    </g>
    <g id="matplotlib.axis_4">
     <g id="ytick_7">
      <g id="line2d_37">
       <path d="M 273.502526 47.429317
L 424.711166 47.429317
" clip-path="url(#pea458b8f07)" style="fill: none; stroke: #b0b0b0; stroke-opacity: 0.17; stroke-width: 0.55; stroke-linecap: square"/>
      </g>
      <g id="line2d_38">
       <g>
        <use xlink:href="#m4b89cd44bd" x="273.502526" y="47.429317" style="stroke: #000000; stroke-width: 0.8"/>
       </g>
      </g>
      <g id="text_21">
       <text style="font-size: 5.5px; font-family: 'DejaVu Serif'; text-anchor: end" x="266.502526" y="49.518888" transform="rotate(-0 266.502526 49.518888)">ASTRA</text>
      </g>
     </g>
     <g id="ytick_8">
      <g id="line2d_39">
       <path d="M 273.502526 55.731436
L 424.711166 55.731436
" clip-path="url(#pea458b8f07)" style="fill: none; stroke: #b0b0b0; stroke-opacity: 0.17; stroke-width: 0.55; stroke-linecap: square"/>
      </g>
      <g id="line2d_40">
       <g>
        <use xlink:href="#m4b89cd44bd" x="273.502526" y="55.731436" style="stroke: #000000; stroke-width: 0.8"/>
       </g>
      </g>
      <g id="text_22">
       <text style="font-size: 5.5px; font-family: 'DejaVu Serif'; text-anchor: end" x="266.502526" y="57.821007" transform="rotate(-0 266.502526 57.821007)">MESO</text>
      </g>
     </g>
     <g id="ytick_9">
      <g id="line2d_41">
       <path d="M 273.502526 64.033555
L 424.711166 64.033555
" clip-path="url(#pea458b8f07)" style="fill: none; stroke: #b0b0b0; stroke-opacity: 0.17; stroke-width: 0.55; stroke-linecap: square"/>
      </g>
      <g id="line2d_42">
       <g>
        <use xlink:href="#m4b89cd44bd" x="273.502526" y="64.033555" style="stroke: #000000; stroke-width: 0.8"/>
       </g>
      </g>
      <g id="text_23">
       <text style="font-size: 5.5px; font-family: 'DejaVu Serif'; text-anchor: end" x="266.502526" y="66.123126" transform="rotate(-0 266.502526 66.123126)">HOPS</text>
      </g>
     </g>
     <g id="ytick_10">
      <g id="line2d_43">
       <path d="M 273.502526 72.335675
L 424.711166 72.335675
" clip-path="url(#pea458b8f07)" style="fill: none; stroke: #b0b0b0; stroke-opacity: 0.17; stroke-width: 0.55; stroke-linecap: square"/>
      </g>
      <g id="line2d_44">
       <g>
        <use xlink:href="#m4b89cd44bd" x="273.502526" y="72.335675" style="stroke: #000000; stroke-width: 0.8"/>
       </g>
      </g>
      <g id="text_24">
       <text style="font-size: 5.5px; font-family: 'DejaVu Serif'; text-anchor: end" x="266.502526" y="74.425245" transform="rotate(-0 266.502526 74.425245)">DET</text>
      </g>
     </g>
     <g id="ytick_11">
      <g id="line2d_45">
       <path d="M 273.502526 80.637794
L 424.711166 80.637794
" clip-path="url(#pea458b8f07)" style="fill: none; stroke: #b0b0b0; stroke-opacity: 0.17; stroke-width: 0.55; stroke-linecap: square"/>
      </g>
      <g id="line2d_46">
       <g>
        <use xlink:href="#m4b89cd44bd" x="273.502526" y="80.637794" style="stroke: #000000; stroke-width: 0.8"/>
       </g>
      </g>
      <g id="text_25">
       <text style="font-size: 5.5px; font-family: 'DejaVu Serif'; text-anchor: end" x="266.502526" y="82.727364" transform="rotate(-0 266.502526 82.727364)">SPARSE</text>
      </g>
     </g>
     <g id="ytick_12">
      <g id="line2d_47">
       <path d="M 273.502526 88.939913
L 424.711166 88.939913
" clip-path="url(#pea458b8f07)" style="fill: none; stroke: #b0b0b0; stroke-opacity: 0.17; stroke-width: 0.55; stroke-linecap: square"/>
      </g>
      <g id="line2d_48">
       <g>
        <use xlink:href="#m4b89cd44bd" x="273.502526" y="88.939913" style="stroke: #000000; stroke-width: 0.8"/>
       </g>
      </g>
      <g id="text_26">
       <text style="font-size: 5.5px; font-family: 'DejaVu Serif'; text-anchor: end" x="266.502526" y="91.029483" transform="rotate(-0 266.502526 91.029483)">FULLER</text>
      </g>
     </g>
    </g>
    <g id="patch_6">
     <path d="M 273.502526 44.10847
L 352.643801 44.10847
L 352.643801 50.750165
L 273.502526 50.750165
z
" clip-path="url(#pea458b8f07)" style="fill: #5a6470; stroke: #222222; stroke-width: 0.35; stroke-linejoin: miter"/>
    </g>
    <g id="patch_7">
     <path d="M 273.502526 52.410589
L 386.344794 52.410589
L 386.344794 59.052284
L 273.502526 59.052284
z
" clip-path="url(#pea458b8f07)" style="fill: #8b9daa; stroke: #222222; stroke-width: 0.35; stroke-linejoin: miter"/>
    </g>
    <g id="patch_8">
     <path d="M 273.502526 60.712708
L 308.687418 60.712708
L 308.687418 67.354403
L 273.502526 67.354403
z
" clip-path="url(#pea458b8f07)" style="fill: #7c8e77; stroke: #222222; stroke-width: 0.35; stroke-linejoin: miter"/>
    </g>
    <g id="patch_9">
     <path d="M 273.502526 69.014827
L 322.603092 69.014827
L 322.603092 75.656522
L 273.502526 75.656522
z
" clip-path="url(#pea458b8f07)" style="fill: #b7a99e; stroke: #222222; stroke-width: 0.35; stroke-linejoin: miter"/>
    </g>
    <g id="patch_10">
     <path d="M 273.502526 77.316946
L 301.333874 77.316946
L 301.333874 83.958641
L 273.502526 83.958641
z
" clip-path="url(#pea458b8f07)" style="fill: #c96a6a; stroke: #222222; stroke-width: 0.35; stroke-linejoin: miter"/>
    </g>
    <g id="patch_11">
     <path d="M 273.502526 85.619065
L 355.578623 85.619065
L 355.578623 92.26076
L 273.502526 92.26076
z
" clip-path="url(#pea458b8f07)" style="fill: #988ba5; stroke: #222222; stroke-width: 0.35; stroke-linejoin: miter"/>
    </g>
    <g id="patch_12">
     <path d="M 273.502526 94.668375
L 273.502526 41.700855
" style="fill: none; stroke: #000000; stroke-width: 0.8; stroke-linejoin: miter; stroke-linecap: square"/>
    </g>
    <g id="patch_13">
     <path d="M 273.502526 94.668375
L 424.711166 94.668375
" style="fill: none; stroke: #000000; stroke-width: 0.8; stroke-linejoin: miter; stroke-linecap: square"/>
    </g>
    <g id="text_27">
     <text style="font-size: 5.6px; font-family: 'DejaVu Serif'; text-anchor: start" x="356.593281" y="48.974567" transform="rotate(-0 356.593281 48.974567)">0.24</text>
    </g>
    <g id="text_28">
     <text style="font-size: 5.6px; font-family: 'DejaVu Serif'; text-anchor: start" x="390.294274" y="57.276686" transform="rotate(-0 390.294274 57.276686)">0.34</text>
    </g>
    <g id="text_29">
     <text style="font-size: 5.6px; font-family: 'DejaVu Serif'; text-anchor: start" x="312.636897" y="65.578805" transform="rotate(-0 312.636897 65.578805)">0.11</text>
    </g>
    <g id="text_30">
     <text style="font-size: 5.6px; font-family: 'DejaVu Serif'; text-anchor: start" x="326.552571" y="73.880925" transform="rotate(-0 326.552571 73.880925)">0.15</text>
    </g>
    <g id="text_31">
     <text style="font-size: 5.6px; font-family: 'DejaVu Serif'; text-anchor: start" x="305.283354" y="82.183044" transform="rotate(-0 305.283354 82.183044)">0.08</text>
    </g>
    <g id="text_32">
     <text style="font-size: 5.6px; font-family: 'DejaVu Serif'; text-anchor: start" x="359.528103" y="90.485163" transform="rotate(-0 359.528103 90.485163)">0.25</text>
    </g>
    <g id="text_33">
     <text style="font-weight: 700; font-size: 6.2px; font-family: 'DejaVu Serif'; text-anchor: middle" x="349.106846" y="39.700855" transform="rotate(-0 349.106846 39.700855)">Top-1 range (pp)</text>
    </g>
   </g>
  </g>
 </g>
 <defs>
  <clipPath id="p8136049f89">
   <rect x="36.472766" y="21.102375" width="408.672" height="147.132"/>
  </clipPath>
  <clipPath id="pea458b8f07">
   <rect x="273.502526" y="41.700855" width="151.20864" height="52.96752"/>
  </clipPath>
 </defs>
</svg>
