<?xml version="1.0" encoding="utf-8" standalone="no"?>
<!DOCTYPE svg PUBLIC "-//W3C//DTD SVG 1.1//EN"
  "http://www.w3.org/Graphics/SVG/1.1/DTD/svg11.dtd">
<svg xmlns:xlink="http://www.w3.org/1999/xlink" width="498.9888pt" height="451.026pt" viewBox="0 0 498.9888 451.026" xmlns="http://www.w3.org/2000/svg" version="1.1">
 <metadata>
  <rdf:RDF xmlns:dc="http://purl.org/dc/elements/1.1/" xmlns:cc="http://creativecommons.org/ns#" xmlns:rdf="http://www.w3.org/1999/02/22-rdf-syntax-ns#">
   <cc:Work>
    <dc:type rdf:resource="http://purl.org/dc/dcmitype/StillImage"/>
    <dc:date>2026-04-30T21:29:34.436979</dc:date>
    <dc:format>image/svg+xml</dc:format>
    <dc:creator>
     <cc:Agent>
      <dc:title>Matplotlib v3.10.9, https://matplotlib.org/</dc:title>
     </cc:Agent>
    </dc:creator>
   </cc:Work>
  </rdf:RDF>
 </metadata>
 <defs>
  <style type="text/css">*{stroke-linejoin: round; stroke-linecap: butt}</style>
 </defs>
 <g id="figure_1">
  <g id="patch_1">
   <path d="M 0 451.026
L 498.9888 451.026
L 498.9888 0
L 0 0
z
" style="fill: #ffffff"/>
  </g>
  <g id="axes_1">
   <g id="table_1">
    <g id="patch_2">
     <path d="M 7.2 89.31089
L 94.425984 89.31089
L 94.425984 71.6652
L 7.2 71.6652
z
" style="fill: #e6e6e6; stroke: #555555; stroke-width: 0.32; stroke-linejoin: miter"/>
    </g>
    <g id="text_1">
     <text style="font-weight: 700; font-size: 6.45px; font-family: 'DejaVu Serif'; text-anchor: start" x="9.38065" y="82.176131" transform="rotate(-0 9.38065 82.176131)">Legacy</text>
    </g>
    <g id="patch_3">
     <path d="M 94.425984 89.31089
L 186.497856 89.31089
L 186.497856 71.6652
L 94.425984 71.6652
z
" style="fill: #e6e6e6; stroke: #555555; stroke-width: 0.32; stroke-linejoin: miter"/>
    </g>
    <g id="text_2">
     <text style="font-weight: 700; font-size: 6.45px; font-family: 'DejaVu Serif'; text-anchor: start" x="96.727781" y="82.267842" transform="rotate(-0 96.727781 82.267842)">Action</text>
    </g>
    <g id="patch_4">
     <path d="M 186.497856 89.31089
L 264.032064 89.31089
L 264.032064 71.6652
L 186.497856 71.6652
z
" style="fill: #e6e6e6; stroke: #555555; stroke-width: 0.32; stroke-linejoin: miter"/>
    </g>
    <g id="text_3">
     <text style="font-weight: 700; font-size: 6.45px; font-family: 'DejaVu Serif'; text-anchor: start" x="188.436211" y="82.267842" transform="rotate(-0 188.436211 82.267842)">Final successor</text>
    </g>
    <g id="patch_5">
     <path d="M 264.032064 89.31089
L 491.7888 89.31089
L 491.7888 71.6652
L 264.032064 71.6652
z
" style="fill: #e6e6e6; stroke: #555555; stroke-width: 0.32; stroke-linejoin: miter"/>
    </g>
    <g id="text_4">
     <text style="font-weight: 700; font-size: 6.45px; font-family: 'DejaVu Serif'; text-anchor: start" x="269.725982" y="82.221986" transform="rotate(-0 269.725982 82.221986)">Boundary / reason</text>
    </g>
    <g id="patch_6">
     <path d="M 7.2 119.999046
L 94.425984 119.999046
L 94.425984 89.31089
L 7.2 89.31089
z
" style="fill: #ffffff; stroke: #555555; stroke-width: 0.32; stroke-linejoin: miter"/>
    </g>
    <g id="text_5">
     <text style="font-size: 6.45px; font-family: 'DejaVu Serif'; text-anchor: start" x="9.38065" y="106.343054" transform="rotate(-0 9.38065 106.343054)">Fig7</text>
    </g>
    <g id="patch_7">
     <path d="M 94.425984 119.999046
L 186.497856 119.999046
L 186.497856 89.31089
L 94.425984 89.31089
z
" style="fill: #f6edc8; stroke: #555555; stroke-width: 0.32; stroke-linejoin: miter"/>
    </g>
    <g id="text_6">
     <text style="font-size: 6.45px; font-family: 'DejaVu Serif'; text-anchor: start" x="96.727781" y="106.434765" transform="rotate(-0 96.727781 106.434765)">appendix retained</text>
    </g>
    <g id="patch_8">
     <path d="M 186.497856 119.999046
L 264.032064 119.999046
L 264.032064 89.31089
L 186.497856 89.31089
z
" style="fill: #ffffff; stroke: #555555; stroke-width: 0.32; stroke-linejoin: miter"/>
    </g>
    <g id="text_7">
     <text style="font-size: 6.45px; font-family: 'DejaVu Serif'; text-anchor: start" x="188.436211" y="106.434765" transform="rotate(-0 188.436211 106.434765)">AppF3</text>
    </g>
    <g id="patch_9">
     <path d="M 264.032064 119.999046
L 491.7888 119.999046
L 491.7888 89.31089
L 264.032064 89.31089
z
" style="fill: #ffffff; stroke: #555555; stroke-width: 0.32; stroke-linejoin: miter"/>
    </g>
    <g id="text_8">
     <text style="font-size: 6.45px; font-family: 'DejaVu Serif'" transform="translate(269.725982 99.212176)">Literature context remains useful if</text>
     <text style="font-size: 6.45px; font-family: 'DejaVu Serif'" transform="translate(269.725982 106.434765)">provenance is retained; moved out of</text>
     <text style="font-size: 6.45px; font-family: 'DejaVu Serif'" transform="translate(269.725982 113.657354)">main data sequence.</text>
    </g>
    <g id="patch_10">
     <path d="M 7.2 150.687202
L 94.425984 150.687202
L 94.425984 119.999046
L 7.2 119.999046
z
" style="fill: #ffffff; stroke: #555555; stroke-width: 0.32; stroke-linejoin: miter"/>
    </g>
    <g id="text_9">
     <text style="font-size: 6.45px; font-family: 'DejaVu Serif'; text-anchor: start" x="9.38065" y="137.03121" transform="rotate(-0 9.38065 137.03121)">Fig17</text>
    </g>
    <g id="patch_11">
     <path d="M 94.425984 150.687202
L 186.497856 150.687202
L 186.497856 119.999046
L 94.425984 119.999046
z
" style="fill: #ddefd9; stroke: #555555; stroke-width: 0.32; stroke-linejoin: miter"/>
    </g>
    <g id="text_10">
     <text style="font-size: 6.45px; font-family: 'DejaVu Serif'; text-anchor: start" x="96.727781" y="137.077065" transform="rotate(-0 96.727781 137.077065)">regenerated</text>
    </g>
    <g id="patch_12">
     <path d="M 186.497856 150.687202
L 264.032064 150.687202
L 264.032064 119.999046
L 186.497856 119.999046
z
" style="fill: #ffffff; stroke: #555555; stroke-width: 0.32; stroke-linejoin: miter"/>
    </g>
    <g id="text_11">
     <text style="font-size: 6.45px; font-family: 'DejaVu Serif'; text-anchor: start" x="188.436211" y="137.03121" transform="rotate(-0 188.436211 137.03121)">Fig3,Fig4</text>
    </g>
    <g id="patch_13">
     <path d="M 264.032064 150.687202
L 491.7888 150.687202
L 491.7888 119.999046
L 264.032064 119.999046
z
" style="fill: #ffffff; stroke: #555555; stroke-width: 0.32; stroke-linejoin: miter"/>
    </g>
    <g id="text_12">
     <text style="font-size: 6.45px; font-family: 'DejaVu Serif'" transform="translate(269.725982 129.808621)">Final numbered pack uses Fig3 for the</text>
     <text style="font-size: 6.45px; font-family: 'DejaVu Serif'" transform="translate(269.725982 137.122921)">runtime/accuracy boundary and Fig4 for</text>
     <text style="font-size: 6.45px; font-family: 'DejaVu Serif'" transform="translate(269.725982 144.437221)">the Pareto companion.</text>
    </g>
    <g id="patch_14">
     <path d="M 7.2 181.375358
L 94.425984 181.375358
L 94.425984 150.687202
L 7.2 150.687202
z
" style="fill: #ffffff; stroke: #555555; stroke-width: 0.32; stroke-linejoin: miter"/>
    </g>
    <g id="text_13">
     <text style="font-size: 6.45px; font-family: 'DejaVu Serif'; text-anchor: start" x="9.38065" y="167.719366" transform="rotate(-0 9.38065 167.719366)">Fig19</text>
    </g>
    <g id="patch_15">
     <path d="M 94.425984 181.375358
L 186.497856 181.375358
L 186.497856 150.687202
L 94.425984 150.687202
z
" style="fill: #f6edc8; stroke: #555555; stroke-width: 0.32; stroke-linejoin: miter"/>
    </g>
    <g id="text_14">
     <text style="font-size: 6.45px; font-family: 'DejaVu Serif'; text-anchor: start" x="96.727781" y="167.811077" transform="rotate(-0 96.727781 167.811077)">mechanism retained</text>
    </g>
    <g id="patch_16">
     <path d="M 186.497856 181.375358
L 264.032064 181.375358
L 264.032064 150.687202
L 186.497856 150.687202
z
" style="fill: #ffffff; stroke: #555555; stroke-width: 0.32; stroke-linejoin: miter"/>
    </g>
    <g id="text_15">
     <text style="font-size: 6.45px; font-family: 'DejaVu Serif'; text-anchor: start" x="188.436211" y="167.811077" transform="rotate(-0 188.436211 167.811077)">AppF4</text>
    </g>
    <g id="patch_17">
     <path d="M 264.032064 181.375358
L 491.7888 181.375358
L 491.7888 150.687202
L 264.032064 150.687202
z
" style="fill: #ffffff; stroke: #555555; stroke-width: 0.32; stroke-linejoin: miter"/>
    </g>
    <g id="text_16">
     <text style="font-size: 6.45px; font-family: 'DejaVu Serif'" transform="translate(269.725982 160.496777)">Mechanism ablation is restored as</text>
     <text style="font-size: 6.45px; font-family: 'DejaVu Serif'" transform="translate(269.725982 167.719366)">appendix context, with accuracy-</text>
     <text style="font-size: 6.45px; font-family: 'DejaVu Serif'" transform="translate(269.725982 175.033666)">preservation wording blocked.</text>
    </g>
    <g id="patch_18">
     <path d="M 7.2 212.063514
L 94.425984 212.063514
L 94.425984 181.375358
L 7.2 181.375358
z
" style="fill: #ffffff; stroke: #555555; stroke-width: 0.32; stroke-linejoin: miter"/>
    </g>
    <g id="text_17">
     <text style="font-size: 6.45px; font-family: 'DejaVu Serif'; text-anchor: start" x="9.38065" y="198.407522" transform="rotate(-0 9.38065 198.407522)">Fig20</text>
    </g>
    <g id="patch_19">
     <path d="M 94.425984 212.063514
L 186.497856 212.063514
L 186.497856 181.375358
L 94.425984 181.375358
z
" style="fill: #ddefd9; stroke: #555555; stroke-width: 0.32; stroke-linejoin: miter"/>
    </g>
    <g id="text_18">
     <text style="font-size: 6.45px; font-family: 'DejaVu Serif'; text-anchor: start" x="96.727781" y="198.453378" transform="rotate(-0 96.727781 198.453378)">regenerated</text>
    </g>
    <g id="patch_20">
     <path d="M 186.497856 212.063514
L 264.032064 212.063514
L 264.032064 181.375358
L 186.497856 181.375358
z
" style="fill: #ffffff; stroke: #555555; stroke-width: 0.32; stroke-linejoin: miter"/>
    </g>
    <g id="text_19">
     <text style="font-size: 6.45px; font-family: 'DejaVu Serif'; text-anchor: start" x="188.436211" y="198.407522" transform="rotate(-0 188.436211 198.407522)">Fig7</text>
    </g>
    <g id="patch_21">
     <path d="M 264.032064 212.063514
L 491.7888 212.063514
L 491.7888 181.375358
L 264.032064 181.375358
z
" style="fill: #ffffff; stroke: #555555; stroke-width: 0.32; stroke-linejoin: miter"/>
    </g>
    <g id="text_20">
     <text style="font-size: 6.45px; font-family: 'DejaVu Serif'" transform="translate(269.725982 191.230788)">Retained only as contextual</text>
     <text style="font-size: 6.45px; font-family: 'DejaVu Serif'" transform="translate(269.725982 198.545088)">CPU/MPS/FULLER comparison, not</text>
     <text style="font-size: 6.45px; font-family: 'DejaVu Serif'" transform="translate(269.725982 205.767678)">benchmark equivalence.</text>
    </g>
    <g id="patch_22">
     <path d="M 7.2 249.656505
L 94.425984 249.656505
L 94.425984 212.063514
L 7.2 212.063514
z
" style="fill: #ffffff; stroke: #555555; stroke-width: 0.32; stroke-linejoin: miter"/>
    </g>
    <g id="text_21">
     <text style="font-size: 6.45px; font-family: 'DejaVu Serif'; text-anchor: start" x="9.38065" y="232.639807" transform="rotate(-0 9.38065 232.639807)">AppF3 / AppF4</text>
    </g>
    <g id="patch_23">
     <path d="M 94.425984 249.656505
L 186.497856 249.656505
L 186.497856 212.063514
L 94.425984 212.063514
z
" style="fill: #ddefd9; stroke: #555555; stroke-width: 0.32; stroke-linejoin: miter"/>
    </g>
    <g id="text_22">
     <text style="font-size: 6.45px; font-family: 'DejaVu Serif'; text-anchor: start" x="96.727781" y="232.593951" transform="rotate(-0 96.727781 232.593951)">regenerated</text>
    </g>
    <g id="patch_24">
     <path d="M 186.497856 249.656505
L 264.032064 249.656505
L 264.032064 212.063514
L 186.497856 212.063514
z
" style="fill: #ffffff; stroke: #555555; stroke-width: 0.32; stroke-linejoin: miter"/>
    </g>
    <g id="text_23">
     <text style="font-size: 6.45px; font-family: 'DejaVu Serif'; text-anchor: start" x="188.436211" y="232.548096" transform="rotate(-0 188.436211 232.548096)">Fig6</text>
    </g>
    <g id="patch_25">
     <path d="M 264.032064 249.656505
L 491.7888 249.656505
L 491.7888 212.063514
L 264.032064 212.063514
z
" style="fill: #ffffff; stroke: #555555; stroke-width: 0.32; stroke-linejoin: miter"/>
    </g>
    <g id="text_24">
     <text style="font-size: 6.45px; font-family: 'DejaVu Serif'" transform="translate(269.725982 221.714212)">Declared-grid timing support with</text>
     <text style="font-size: 6.45px; font-family: 'DejaVu Serif'" transform="translate(269.725982 229.028512)">trace-backed flow-buffer fields; no</text>
     <text style="font-size: 6.45px; font-family: 'DejaVu Serif'" transform="translate(269.725982 236.251101)">universal scaling or silicon</text>
     <text style="font-size: 6.45px; font-family: 'DejaVu Serif'" transform="translate(269.725982 243.565401)">measurement claim.</text>
    </g>
    <g id="patch_26">
     <path d="M 7.2 280.344661
L 94.425984 280.344661
L 94.425984 249.656505
L 7.2 249.656505
z
" style="fill: #ffffff; stroke: #555555; stroke-width: 0.32; stroke-linejoin: miter"/>
    </g>
    <g id="text_25">
     <text style="font-size: 6.45px; font-family: 'DejaVu Serif'; text-anchor: start" x="9.38065" y="266.78038" transform="rotate(-0 9.38065 266.78038)">AppF7</text>
    </g>
    <g id="patch_27">
     <path d="M 94.425984 280.344661
L 186.497856 280.344661
L 186.497856 249.656505
L 94.425984 249.656505
z
" style="fill: #ddefd9; stroke: #555555; stroke-width: 0.32; stroke-linejoin: miter"/>
    </g>
    <g id="text_26">
     <text style="font-size: 6.45px; font-family: 'DejaVu Serif'; text-anchor: start" x="96.727781" y="266.734525" transform="rotate(-0 96.727781 266.734525)">regenerated</text>
    </g>
    <g id="patch_28">
     <path d="M 186.497856 280.344661
L 264.032064 280.344661
L 264.032064 249.656505
L 186.497856 249.656505
z
" style="fill: #ffffff; stroke: #555555; stroke-width: 0.32; stroke-linejoin: miter"/>
    </g>
    <g id="text_27">
     <text style="font-size: 6.45px; font-family: 'DejaVu Serif'; text-anchor: start" x="188.436211" y="266.688669" transform="rotate(-0 188.436211 266.688669)">Fig5</text>
    </g>
    <g id="patch_29">
     <path d="M 264.032064 280.344661
L 491.7888 280.344661
L 491.7888 249.656505
L 264.032064 249.656505
z
" style="fill: #ffffff; stroke: #555555; stroke-width: 0.32; stroke-linejoin: miter"/>
    </g>
    <g id="text_28">
     <text style="font-size: 6.45px; font-family: 'DejaVu Serif'" transform="translate(269.725982 259.46608)">Retained as bounded sensitivity</text>
     <text style="font-size: 6.45px; font-family: 'DejaVu Serif'" transform="translate(269.725982 266.78038)">context and blocked from positive</text>
     <text style="font-size: 6.45px; font-family: 'DejaVu Serif'" transform="translate(269.725982 274.002969)">accuracy-preservation wording.</text>
    </g>
    <g id="patch_30">
     <path d="M 7.2 311.032818
L 94.425984 311.032818
L 94.425984 280.344661
L 7.2 280.344661
z
" style="fill: #ffffff; stroke: #555555; stroke-width: 0.32; stroke-linejoin: miter"/>
    </g>
    <g id="text_29">
     <text style="font-size: 6.45px; font-family: 'DejaVu Serif'; text-anchor: start" x="9.38065" y="297.376825" transform="rotate(-0 9.38065 297.376825)">Fig10</text>
    </g>
    <g id="patch_31">
     <path d="M 94.425984 311.032818
L 186.497856 311.032818
L 186.497856 280.344661
L 94.425984 280.344661
z
" style="fill: #f6edc8; stroke: #555555; stroke-width: 0.32; stroke-linejoin: miter"/>
    </g>
    <g id="text_30">
     <text style="font-size: 6.45px; font-family: 'DejaVu Serif'; text-anchor: start" x="96.727781" y="297.468536" transform="rotate(-0 96.727781 297.468536)">mechanism retained</text>
    </g>
    <g id="patch_32">
     <path d="M 186.497856 311.032818
L 264.032064 311.032818
L 264.032064 280.344661
L 186.497856 280.344661
z
" style="fill: #ffffff; stroke: #555555; stroke-width: 0.32; stroke-linejoin: miter"/>
    </g>
    <g id="text_31">
     <text style="font-size: 6.45px; font-family: 'DejaVu Serif'; text-anchor: start" x="188.436211" y="297.468536" transform="rotate(-0 188.436211 297.468536)">AppF5</text>
    </g>
    <g id="patch_33">
     <path d="M 264.032064 311.032818
L 491.7888 311.032818
L 491.7888 280.344661
L 264.032064 280.344661
z
" style="fill: #ffffff; stroke: #555555; stroke-width: 0.32; stroke-linejoin: miter"/>
    </g>
    <g id="text_32">
     <text style="font-size: 6.45px; font-family: 'DejaVu Serif'" transform="translate(269.725982 290.200092)">Energy component decomposition is</text>
     <text style="font-size: 6.45px; font-family: 'DejaVu Serif'" transform="translate(269.725982 297.514392)">restored as appendix mechanism</text>
     <text style="font-size: 6.45px; font-family: 'DejaVu Serif'" transform="translate(269.725982 304.736981)">context.</text>
    </g>
    <g id="patch_34">
     <path d="M 7.2 341.720974
L 94.425984 341.720974
L 94.425984 311.032818
L 7.2 311.032818
z
" style="fill: #ffffff; stroke: #555555; stroke-width: 0.32; stroke-linejoin: miter"/>
    </g>
    <g id="text_33">
     <text style="font-size: 6.45px; font-family: 'DejaVu Serif'; text-anchor: start" x="9.38065" y="328.064982" transform="rotate(-0 9.38065 328.064982)">Fig8 / Fig18</text>
    </g>
    <g id="patch_35">
     <path d="M 94.425984 341.720974
L 186.497856 341.720974
L 186.497856 311.032818
L 94.425984 311.032818
z
" style="fill: #f6edc8; stroke: #555555; stroke-width: 0.32; stroke-linejoin: miter"/>
    </g>
    <g id="text_34">
     <text style="font-size: 6.45px; font-family: 'DejaVu Serif'; text-anchor: start" x="96.727781" y="328.156692" transform="rotate(-0 96.727781 328.156692)">mechanism retained</text>
    </g>
    <g id="patch_36">
     <path d="M 186.497856 341.720974
L 264.032064 341.720974
L 264.032064 311.032818
L 186.497856 311.032818
z
" style="fill: #ffffff; stroke: #555555; stroke-width: 0.32; stroke-linejoin: miter"/>
    </g>
    <g id="text_35">
     <text style="font-size: 6.45px; font-family: 'DejaVu Serif'; text-anchor: start" x="188.436211" y="328.156692" transform="rotate(-0 188.436211 328.156692)">AppF6</text>
    </g>
    <g id="patch_37">
     <path d="M 264.032064 341.720974
L 491.7888 341.720974
L 491.7888 311.032818
L 264.032064 311.032818
z
" style="fill: #ffffff; stroke: #555555; stroke-width: 0.32; stroke-linejoin: miter"/>
    </g>
    <g id="text_36">
     <text style="font-size: 6.45px; font-family: 'DejaVu Serif'" transform="translate(269.725982 320.888248)">DET k-sweep and net-gain evidence are</text>
     <text style="font-size: 6.45px; font-family: 'DejaVu Serif'" transform="translate(269.725982 328.202548)">restored as appendix mechanism</text>
     <text style="font-size: 6.45px; font-family: 'DejaVu Serif'" transform="translate(269.725982 335.425137)">context.</text>
    </g>
    <g id="patch_38">
     <path d="M 7.2 386.2188
L 94.425984 386.2188
L 94.425984 341.720974
L 7.2 341.720974
z
" style="fill: #ffffff; stroke: #555555; stroke-width: 0.32; stroke-linejoin: miter"/>
    </g>
    <g id="text_37">
     <text style="font-size: 6.45px; font-family: 'DejaVu Serif'" transform="translate(9.38065 354.824089)">Fig11-Fig16,</text>
     <text style="font-size: 6.45px; font-family: 'DejaVu Serif'" transform="translate(9.38065 362.138389)">AppF1 / AppF2 /</text>
     <text style="font-size: 6.45px; font-family: 'DejaVu Serif'" transform="translate(9.38065 369.360978)">AppF5 / AppF6 /</text>
     <text style="font-size: 6.45px; font-family: 'DejaVu Serif'" transform="translate(9.38065 376.583567)">AppF8</text>
    </g>
    <g id="patch_39">
     <path d="M 94.425984 386.2188
L 186.497856 386.2188
L 186.497856 341.720974
L 94.425984 341.720974
z
" style="fill: #f6d6d2; stroke: #555555; stroke-width: 0.32; stroke-linejoin: miter"/>
    </g>
    <g id="text_38">
     <text style="font-size: 6.45px; font-family: 'DejaVu Serif'; text-anchor: start" x="96.727781" y="365.749684" transform="rotate(-0 96.727781 365.749684)">retired</text>
    </g>
    <g id="patch_40">
     <path d="M 186.497856 386.2188
L 264.032064 386.2188
L 264.032064 341.720974
L 186.497856 341.720974
z
" style="fill: #ffffff; stroke: #555555; stroke-width: 0.32; stroke-linejoin: miter"/>
    </g>
    <g id="patch_41">
     <path d="M 264.032064 386.2188
L 491.7888 386.2188
L 491.7888 341.720974
L 264.032064 341.720974
z
" style="fill: #ffffff; stroke: #555555; stroke-width: 0.32; stroke-linejoin: miter"/>
    </g>
    <g id="text_39">
     <text style="font-size: 6.45px; font-family: 'DejaVu Serif'" transform="translate(269.725982 351.166939)">Not restored in this pass because it</text>
     <text style="font-size: 6.45px; font-family: 'DejaVu Serif'" transform="translate(269.725982 358.389528)">is either out of boundary, redundant</text>
     <text style="font-size: 6.45px; font-family: 'DejaVu Serif'" transform="translate(269.725982 365.703828)">with current schematics, or too likely</text>
     <text style="font-size: 6.45px; font-family: 'DejaVu Serif'" transform="translate(269.725982 373.018128)">to imply unsupported current accuracy</text>
     <text style="font-size: 6.45px; font-family: 'DejaVu Serif'" transform="translate(269.725982 380.332428)">claims.</text>
    </g>
   </g>
  </g>
  <g id="text_40">
   <text style="font-weight: 700; font-size: 11px; font-family: 'DejaVu Serif'; text-anchor: middle" x="249.4944" y="15.558281" transform="rotate(-0 249.4944 15.558281)">Data-Figure Compatibility Matrix (Final Numbering)</text>
  </g>
  <g id="text_41">
   <text style="font-size: 6.6px; font-family: 'DejaVu Serif'; fill: #3e4448" transform="translate(40.105791 434.875162)">Final successors use Fig3/Fig4 runtime-Pareto, Fig5 bounded sensitivity, Fig6 declared-grid timing, and Fig7 device context;</text>
   <text style="font-size: 6.6px; font-family: 'DejaVu Serif'; fill: #3e4448" transform="translate(183.804291 442.359562)">Fig9-Fig12 are mechanism schematics.</text>
  </g>
 </g>
</svg>
