<?xml version="1.0" encoding="utf-8" standalone="no"?>
<!DOCTYPE svg PUBLIC "-//W3C//DTD SVG 1.1//EN"
  "http://www.w3.org/Graphics/SVG/1.1/DTD/svg11.dtd">
<svg xmlns:xlink="http://www.w3.org/1999/xlink" width="501.237737pt" height="247.03pt" viewBox="0 0 501.237737 247.03" xmlns="http://www.w3.org/2000/svg" version="1.1">
 <metadata>
  <rdf:RDF xmlns:dc="http://purl.org/dc/elements/1.1/" xmlns:cc="http://creativecommons.org/ns#" xmlns:rdf="http://www.w3.org/1999/02/22-rdf-syntax-ns#">
   <cc:Work>
    <dc:type rdf:resource="http://purl.org/dc/dcmitype/StillImage"/>
    <dc:date>2026-04-30T21:29:32.231845</dc:date>
    <dc:format>image/svg+xml</dc:format>
    <dc:creator>
     <cc:Agent>
      <dc:title>Matplotlib v3.10.9, https://matplotlib.org/</dc:title>
     </cc:Agent>
    </dc:creator>
   </cc:Work>
  </rdf:RDF>
 </metadata>
 <defs>
  <style type="text/css">*{stroke-linejoin: round; stroke-linecap: butt}</style>
 </defs>
 <g id="figure_1">
  <g id="patch_1">
   <path d="M 0 247.03
L 501.237737 247.03
L 501.237737 0
L 0 0
z
" style="fill: #ffffff"/>
  </g>
  <g id="axes_1">
   <g id="patch_2">
    <path d="M 48.112938 196.344
L 248.079216 196.344
L 248.079216 42.984
L 48.112938 42.984
z
" style="fill: #ffffff"/>
   </g>
   <g id="matplotlib.axis_1">
    <g id="xtick_1">
     <g id="line2d_1">
      <path d="M 48.112938 196.344
L 48.112938 42.984
" clip-path="url(#pc56d63d722)" style="fill: none; stroke: #b0b0b0; stroke-opacity: 0.17; stroke-width: 0.55; stroke-linecap: square"/>
     </g>
     <g id="line2d_2">
      <defs>
       <path id="md41b52e77d" d="M 0 0
L 0 3.5
" style="stroke: #000000; stroke-width: 0.8"/>
      </defs>
      <g>
       <use xlink:href="#md41b52e77d" x="48.112938" y="196.344" style="stroke: #000000; stroke-width: 0.8"/>
      </g>
     </g>
     <g id="text_1">
      <text style="font-size: 7.8px; font-family: 'DejaVu Serif'; text-anchor: middle" x="48.112938" y="209.270781" transform="rotate(-0 48.112938 209.270781)">0.0</text>
     </g>
    </g>
    <g id="xtick_2">
     <g id="line2d_3">
      <path d="M 77.023167 196.344
L 77.023167 42.984
" clip-path="url(#pc56d63d722)" style="fill: none; stroke: #b0b0b0; stroke-opacity: 0.17; stroke-width: 0.55; stroke-linecap: square"/>
     </g>
     <g id="line2d_4">
      <g>
       <use xlink:href="#md41b52e77d" x="77.023167" y="196.344" style="stroke: #000000; stroke-width: 0.8"/>
      </g>
     </g>
     <g id="text_2">
      <text style="font-size: 7.8px; font-family: 'DejaVu Serif'; text-anchor: middle" x="77.023167" y="209.270781" transform="rotate(-0 77.023167 209.270781)">2.5</text>
     </g>
    </g>
    <g id="xtick_3">
     <g id="line2d_5">
      <path d="M 105.933397 196.344
L 105.933397 42.984
" clip-path="url(#pc56d63d722)" style="fill: none; stroke: #b0b0b0; stroke-opacity: 0.17; stroke-width: 0.55; stroke-linecap: square"/>
     </g>
     <g id="line2d_6">
      <g>
       <use xlink:href="#md41b52e77d" x="105.933397" y="196.344" style="stroke: #000000; stroke-width: 0.8"/>
      </g>
     </g>
     <g id="text_3">
      <text style="font-size: 7.8px; font-family: 'DejaVu Serif'; text-anchor: middle" x="105.933397" y="209.270781" transform="rotate(-0 105.933397 209.270781)">5.0</text>
     </g>
    </g>
    <g id="xtick_4">
     <g id="line2d_7">
      <path d="M 134.843627 196.344
L 134.843627 42.984
" clip-path="url(#pc56d63d722)" style="fill: none; stroke: #b0b0b0; stroke-opacity: 0.17; stroke-width: 0.55; stroke-linecap: square"/>
     </g>
     <g id="line2d_8">
      <g>
       <use xlink:href="#md41b52e77d" x="134.843627" y="196.344" style="stroke: #000000; stroke-width: 0.8"/>
      </g>
     </g>
     <g id="text_4">
      <text style="font-size: 7.8px; font-family: 'DejaVu Serif'; text-anchor: middle" x="134.843627" y="209.270781" transform="rotate(-0 134.843627 209.270781)">7.5</text>
     </g>
    </g>
    <g id="xtick_5">
     <g id="line2d_9">
      <path d="M 163.753857 196.344
L 163.753857 42.984
" clip-path="url(#pc56d63d722)" style="fill: none; stroke: #b0b0b0; stroke-opacity: 0.17; stroke-width: 0.55; stroke-linecap: square"/>
     </g>
     <g id="line2d_10">
      <g>
       <use xlink:href="#md41b52e77d" x="163.753857" y="196.344" style="stroke: #000000; stroke-width: 0.8"/>
      </g>
     </g>
     <g id="text_5">
      <text style="font-size: 7.8px; font-family: 'DejaVu Serif'; text-anchor: middle" x="163.753857" y="209.270781" transform="rotate(-0 163.753857 209.270781)">10.0</text>
     </g>
    </g>
    <g id="xtick_6">
     <g id="line2d_11">
      <path d="M 192.664087 196.344
L 192.664087 42.984
" clip-path="url(#pc56d63d722)" style="fill: none; stroke: #b0b0b0; stroke-opacity: 0.17; stroke-width: 0.55; stroke-linecap: square"/>
     </g>
     <g id="line2d_12">
      <g>
       <use xlink:href="#md41b52e77d" x="192.664087" y="196.344" style="stroke: #000000; stroke-width: 0.8"/>
      </g>
     </g>
     <g id="text_6">
      <text style="font-size: 7.8px; font-family: 'DejaVu Serif'; text-anchor: middle" x="192.664087" y="209.270781" transform="rotate(-0 192.664087 209.270781)">12.5</text>
     </g>
    </g>
    <g id="xtick_7">
     <g id="line2d_13">
      <path d="M 221.574317 196.344
L 221.574317 42.984
" clip-path="url(#pc56d63d722)" style="fill: none; stroke: #b0b0b0; stroke-opacity: 0.17; stroke-width: 0.55; stroke-linecap: square"/>
     </g>
     <g id="line2d_14">
      <g>
       <use xlink:href="#md41b52e77d" x="221.574317" y="196.344" style="stroke: #000000; stroke-width: 0.8"/>
      </g>
     </g>
     <g id="text_7">
      <text style="font-size: 7.8px; font-family: 'DejaVu Serif'; text-anchor: middle" x="221.574317" y="209.270781" transform="rotate(-0 221.574317 209.270781)">15.0</text>
     </g>
    </g>
    <g id="text_8">
     <text style="font-size: 8.5px; font-family: 'DejaVu Serif'; text-anchor: middle" x="148.096077" y="221.351609" transform="rotate(-0 148.096077 221.351609)">Speedup vs ASTRA (x)</text>
    </g>
   </g>
   <g id="matplotlib.axis_2">
    <g id="ytick_1">
     <g id="line2d_15">
      <path d="M 48.112938 59.569956
L 248.079216 59.569956
" clip-path="url(#pc56d63d722)" style="fill: none; stroke: #b0b0b0; stroke-opacity: 0.17; stroke-width: 0.55; stroke-linecap: square"/>
     </g>
     <g id="line2d_16">
      <defs>
       <path id="m9b9f2ff0d2" d="M 0 0
L -3.5 0
" style="stroke: #000000; stroke-width: 0.8"/>
      </defs>
      <g>
       <use xlink:href="#m9b9f2ff0d2" x="48.112938" y="59.569956" style="stroke: #000000; stroke-width: 0.8"/>
      </g>
     </g>
     <g id="text_9">
      <text style="font-size: 7.8px; font-family: 'DejaVu Serif'; text-anchor: end" x="41.112938" y="62.533347" transform="rotate(-0 41.112938 62.533347)">ASTRA</text>
     </g>
    </g>
    <g id="ytick_2">
     <g id="line2d_17">
      <path d="M 48.112938 83.607574
L 248.079216 83.607574
" clip-path="url(#pc56d63d722)" style="fill: none; stroke: #b0b0b0; stroke-opacity: 0.17; stroke-width: 0.55; stroke-linecap: square"/>
     </g>
     <g id="line2d_18">
      <g>
       <use xlink:href="#m9b9f2ff0d2" x="48.112938" y="83.607574" style="stroke: #000000; stroke-width: 0.8"/>
      </g>
     </g>
     <g id="text_10">
      <text style="font-size: 7.8px; font-family: 'DejaVu Serif'; text-anchor: end" x="41.112938" y="86.570964" transform="rotate(-0 41.112938 86.570964)">MESO</text>
     </g>
    </g>
    <g id="ytick_3">
     <g id="line2d_19">
      <path d="M 48.112938 107.645191
L 248.079216 107.645191
" clip-path="url(#pc56d63d722)" style="fill: none; stroke: #b0b0b0; stroke-opacity: 0.17; stroke-width: 0.55; stroke-linecap: square"/>
     </g>
     <g id="line2d_20">
      <g>
       <use xlink:href="#m9b9f2ff0d2" x="48.112938" y="107.645191" style="stroke: #000000; stroke-width: 0.8"/>
      </g>
     </g>
     <g id="text_11">
      <text style="font-size: 7.8px; font-family: 'DejaVu Serif'; text-anchor: end" x="41.112938" y="110.608582" transform="rotate(-0 41.112938 110.608582)">HOPS</text>
     </g>
    </g>
    <g id="ytick_4">
     <g id="line2d_21">
      <path d="M 48.112938 131.682809
L 248.079216 131.682809
" clip-path="url(#pc56d63d722)" style="fill: none; stroke: #b0b0b0; stroke-opacity: 0.17; stroke-width: 0.55; stroke-linecap: square"/>
     </g>
     <g id="line2d_22">
      <g>
       <use xlink:href="#m9b9f2ff0d2" x="48.112938" y="131.682809" style="stroke: #000000; stroke-width: 0.8"/>
      </g>
     </g>
     <g id="text_12">
      <text style="font-size: 7.8px; font-family: 'DejaVu Serif'; text-anchor: end" x="41.112938" y="134.646199" transform="rotate(-0 41.112938 134.646199)">DET</text>
     </g>
    </g>
    <g id="ytick_5">
     <g id="line2d_23">
      <path d="M 48.112938 155.720426
L 248.079216 155.720426
" clip-path="url(#pc56d63d722)" style="fill: none; stroke: #b0b0b0; stroke-opacity: 0.17; stroke-width: 0.55; stroke-linecap: square"/>
     </g>
     <g id="line2d_24">
      <g>
       <use xlink:href="#m9b9f2ff0d2" x="48.112938" y="155.720426" style="stroke: #000000; stroke-width: 0.8"/>
      </g>
     </g>
     <g id="text_13">
      <text style="font-size: 7.8px; font-family: 'DejaVu Serif'; text-anchor: end" x="41.112938" y="158.683817" transform="rotate(-0 41.112938 158.683817)">SPARSE</text>
     </g>
    </g>
    <g id="ytick_6">
     <g id="line2d_25">
      <path d="M 48.112938 179.758044
L 248.079216 179.758044
" clip-path="url(#pc56d63d722)" style="fill: none; stroke: #b0b0b0; stroke-opacity: 0.17; stroke-width: 0.55; stroke-linecap: square"/>
     </g>
     <g id="line2d_26">
      <g>
       <use xlink:href="#m9b9f2ff0d2" x="48.112938" y="179.758044" style="stroke: #000000; stroke-width: 0.8"/>
      </g>
     </g>
     <g id="text_14">
      <text style="font-size: 7.8px; font-family: 'DejaVu Serif'; text-anchor: end" x="41.112938" y="182.721435" transform="rotate(-0 41.112938 182.721435)">FULLER</text>
     </g>
    </g>
   </g>
   <g id="patch_3">
    <path d="M 48.112938 49.954909
L 59.677029 49.954909
L 59.677029 69.185003
L 48.112938 69.185003
z
" clip-path="url(#pc56d63d722)" style="fill: #5a6470; stroke: #222222; stroke-width: 0.75; stroke-linejoin: miter"/>
   </g>
   <g id="patch_4">
    <path d="M 48.112938 73.992527
L 180.059227 73.992527
L 180.059227 93.222621
L 48.112938 93.222621
z
" clip-path="url(#pc56d63d722)" style="fill: #8b9daa; stroke: #222222; stroke-width: 0.75; stroke-linejoin: miter"/>
   </g>
   <g id="patch_5">
    <path d="M 48.112938 98.030144
L 214.173298 98.030144
L 214.173298 117.260238
L 48.112938 117.260238
z
" clip-path="url(#pc56d63d722)" style="fill: #7c8e77; stroke: #222222; stroke-width: 0.75; stroke-linejoin: miter"/>
   </g>
   <g id="patch_6">
    <path d="M 48.112938 122.067762
L 192.085882 122.067762
L 192.085882 141.297856
L 48.112938 141.297856
z
" clip-path="url(#pc56d63d722)" style="fill: #b7a99e; stroke: #222222; stroke-width: 0.75; stroke-linejoin: miter"/>
   </g>
   <g id="patch_7">
    <path d="M 48.112938 146.105379
L 214.751503 146.105379
L 214.751503 165.335473
L 48.112938 165.335473
z
" clip-path="url(#pc56d63d722)" style="fill: url(#hb7a22b933d); stroke: #222222; stroke-width: 0.75; stroke-linejoin: miter"/>
   </g>
   <g id="patch_8">
    <path d="M 48.112938 170.142997
L 188.154091 170.142997
L 188.154091 189.373091
L 48.112938 189.373091
z
" clip-path="url(#pc56d63d722)" style="fill: url(#he7eb8820df); stroke: #222222; stroke-width: 0.75; stroke-linejoin: miter"/>
   </g>
   <g id="patch_9">
    <path d="M 48.112938 196.344
L 48.112938 42.984
" style="fill: none; stroke: #000000; stroke-width: 0.8; stroke-linejoin: miter; stroke-linecap: square"/>
   </g>
   <g id="patch_10">
    <path d="M 48.112938 196.344
L 248.079216 196.344
" style="fill: none; stroke: #000000; stroke-width: 0.8; stroke-linejoin: miter; stroke-linecap: square"/>
   </g>
   <g id="text_15">
    <text style="font-size: 7.3px; font-family: 'DejaVu Serif'; text-anchor: start" x="62.676524" y="61.5843" transform="rotate(-0 62.676524 61.5843)">1.00x</text>
   </g>
   <g id="text_16">
    <text style="font-size: 7.3px; font-family: 'DejaVu Serif'; text-anchor: start" x="183.058721" y="85.621917" transform="rotate(-0 183.058721 85.621917)">11.41x</text>
   </g>
   <g id="text_17">
    <text style="font-size: 7.3px; font-family: 'DejaVu Serif'; text-anchor: start" x="217.172792" y="109.659535" transform="rotate(-0 217.172792 109.659535)">14.36x</text>
   </g>
   <g id="text_18">
    <text style="font-size: 7.3px; font-family: 'DejaVu Serif'; text-anchor: start" x="195.085376" y="133.697153" transform="rotate(-0 195.085376 133.697153)">12.45x</text>
   </g>
   <g id="text_19">
    <text style="font-size: 7.3px; font-family: 'DejaVu Serif'; text-anchor: start" x="217.750997" y="157.73477" transform="rotate(-0 217.750997 157.73477)">14.41x</text>
   </g>
   <g id="text_20">
    <text style="font-size: 7.3px; font-family: 'DejaVu Serif'; text-anchor: start" x="191.153585" y="181.772388" transform="rotate(-0 191.153585 181.772388)">12.11x</text>
   </g>
   <g id="text_21">
    <text style="font-weight: 700; font-size: 10.4px; font-family: 'DejaVu Serif'; text-anchor: start" x="48.112938" y="35.984" transform="rotate(-0 48.112938 35.984)">Runtime readiness</text>
   </g>
  </g>
  <g id="axes_2">
   <g id="patch_11">
    <path d="M 294.071459 196.344
L 494.037737 196.344
L 494.037737 42.984
L 294.071459 42.984
z
" style="fill: #ffffff"/>
   </g>
   <g id="matplotlib.axis_3">
    <g id="xtick_8">
     <g id="line2d_27">
      <path d="M 306.687768 196.344
L 306.687768 42.984
" clip-path="url(#p42727ca2c3)" style="fill: none; stroke: #b0b0b0; stroke-opacity: 0.17; stroke-width: 0.55; stroke-linecap: square"/>
     </g>
     <g id="line2d_28">
      <g>
       <use xlink:href="#md41b52e77d" x="306.687768" y="196.344" style="stroke: #000000; stroke-width: 0.8"/>
      </g>
     </g>
     <g id="text_22">
      <text style="font-size: 7.8px; font-family: 'DejaVu Serif'; text-anchor: middle" x="306.687768" y="209.270781" transform="rotate(-0 306.687768 209.270781)">20</text>
     </g>
    </g>
    <g id="xtick_9">
     <g id="line2d_29">
      <path d="M 338.228538 196.344
L 338.228538 42.984
" clip-path="url(#p42727ca2c3)" style="fill: none; stroke: #b0b0b0; stroke-opacity: 0.17; stroke-width: 0.55; stroke-linecap: square"/>
     </g>
     <g id="line2d_30">
      <g>
       <use xlink:href="#md41b52e77d" x="338.228538" y="196.344" style="stroke: #000000; stroke-width: 0.8"/>
      </g>
     </g>
     <g id="text_23">
      <text style="font-size: 7.8px; font-family: 'DejaVu Serif'; text-anchor: middle" x="338.228538" y="209.270781" transform="rotate(-0 338.228538 209.270781)">25</text>
     </g>
    </g>
    <g id="xtick_10">
     <g id="line2d_31">
      <path d="M 369.769309 196.344
L 369.769309 42.984
" clip-path="url(#p42727ca2c3)" style="fill: none; stroke: #b0b0b0; stroke-opacity: 0.17; stroke-width: 0.55; stroke-linecap: square"/>
     </g>
     <g id="line2d_32">
      <g>
       <use xlink:href="#md41b52e77d" x="369.769309" y="196.344" style="stroke: #000000; stroke-width: 0.8"/>
      </g>
     </g>
     <g id="text_24">
      <text style="font-size: 7.8px; font-family: 'DejaVu Serif'; text-anchor: middle" x="369.769309" y="209.270781" transform="rotate(-0 369.769309 209.270781)">30</text>
     </g>
    </g>
    <g id="xtick_11">
     <g id="line2d_33">
      <path d="M 401.31008 196.344
L 401.31008 42.984
" clip-path="url(#p42727ca2c3)" style="fill: none; stroke: #b0b0b0; stroke-opacity: 0.17; stroke-width: 0.55; stroke-linecap: square"/>
     </g>
     <g id="line2d_34">
      <g>
       <use xlink:href="#md41b52e77d" x="401.31008" y="196.344" style="stroke: #000000; stroke-width: 0.8"/>
      </g>
     </g>
     <g id="text_25">
      <text style="font-size: 7.8px; font-family: 'DejaVu Serif'; text-anchor: middle" x="401.31008" y="209.270781" transform="rotate(-0 401.31008 209.270781)">35</text>
     </g>
    </g>
    <g id="xtick_12">
     <g id="line2d_35">
      <path d="M 432.85085 196.344
L 432.85085 42.984
" clip-path="url(#p42727ca2c3)" style="fill: none; stroke: #b0b0b0; stroke-opacity: 0.17; stroke-width: 0.55; stroke-linecap: square"/>
     </g>
     <g id="line2d_36">
      <g>
       <use xlink:href="#md41b52e77d" x="432.85085" y="196.344" style="stroke: #000000; stroke-width: 0.8"/>
      </g>
     </g>
     <g id="text_26">
      <text style="font-size: 7.8px; font-family: 'DejaVu Serif'; text-anchor: middle" x="432.85085" y="209.270781" transform="rotate(-0 432.85085 209.270781)">40</text>
     </g>
    </g>
    <g id="xtick_13">
     <g id="line2d_37">
      <path d="M 464.391621 196.344
L 464.391621 42.984
" clip-path="url(#p42727ca2c3)" style="fill: none; stroke: #b0b0b0; stroke-opacity: 0.17; stroke-width: 0.55; stroke-linecap: square"/>
     </g>
     <g id="line2d_38">
      <g>
       <use xlink:href="#md41b52e77d" x="464.391621" y="196.344" style="stroke: #000000; stroke-width: 0.8"/>
      </g>
     </g>
     <g id="text_27">
      <text style="font-size: 7.8px; font-family: 'DejaVu Serif'; text-anchor: middle" x="464.391621" y="209.270781" transform="rotate(-0 464.391621 209.270781)">45</text>
     </g>
    </g>
    <g id="text_28">
     <text style="font-size: 8.5px; font-family: 'DejaVu Serif'; text-anchor: middle" x="394.054598" y="221.351609" transform="rotate(-0 394.054598 221.351609)">Top-1 accuracy (%)</text>
    </g>
   </g>
   <g id="matplotlib.axis_4">
    <g id="ytick_7">
     <g id="line2d_39">
      <path d="M 294.071459 59.569956
L 494.037737 59.569956
" clip-path="url(#p42727ca2c3)" style="fill: none; stroke: #b0b0b0; stroke-opacity: 0.17; stroke-width: 0.55; stroke-linecap: square"/>
     </g>
     <g id="line2d_40">
      <g>
       <use xlink:href="#m9b9f2ff0d2" x="294.071459" y="59.569956" style="stroke: #000000; stroke-width: 0.8"/>
      </g>
     </g>
    </g>
    <g id="ytick_8">
     <g id="line2d_41">
      <path d="M 294.071459 83.607574
L 494.037737 83.607574
" clip-path="url(#p42727ca2c3)" style="fill: none; stroke: #b0b0b0; stroke-opacity: 0.17; stroke-width: 0.55; stroke-linecap: square"/>
     </g>
     <g id="line2d_42">
      <g>
       <use xlink:href="#m9b9f2ff0d2" x="294.071459" y="83.607574" style="stroke: #000000; stroke-width: 0.8"/>
      </g>
     </g>
    </g>
    <g id="ytick_9">
     <g id="line2d_43">
      <path d="M 294.071459 107.645191
L 494.037737 107.645191
" clip-path="url(#p42727ca2c3)" style="fill: none; stroke: #b0b0b0; stroke-opacity: 0.17; stroke-width: 0.55; stroke-linecap: square"/>
     </g>
     <g id="line2d_44">
      <g>
       <use xlink:href="#m9b9f2ff0d2" x="294.071459" y="107.645191" style="stroke: #000000; stroke-width: 0.8"/>
      </g>
     </g>
    </g>
    <g id="ytick_10">
     <g id="line2d_45">
      <path d="M 294.071459 131.682809
L 494.037737 131.682809
" clip-path="url(#p42727ca2c3)" style="fill: none; stroke: #b0b0b0; stroke-opacity: 0.17; stroke-width: 0.55; stroke-linecap: square"/>
     </g>
     <g id="line2d_46">
      <g>
       <use xlink:href="#m9b9f2ff0d2" x="294.071459" y="131.682809" style="stroke: #000000; stroke-width: 0.8"/>
      </g>
     </g>
    </g>
    <g id="ytick_11">
     <g id="line2d_47">
      <path d="M 294.071459 155.720426
L 494.037737 155.720426
" clip-path="url(#p42727ca2c3)" style="fill: none; stroke: #b0b0b0; stroke-opacity: 0.17; stroke-width: 0.55; stroke-linecap: square"/>
     </g>
     <g id="line2d_48">
      <g>
       <use xlink:href="#m9b9f2ff0d2" x="294.071459" y="155.720426" style="stroke: #000000; stroke-width: 0.8"/>
      </g>
     </g>
    </g>
    <g id="ytick_12">
     <g id="line2d_49">
      <path d="M 294.071459 179.758044
L 494.037737 179.758044
" clip-path="url(#p42727ca2c3)" style="fill: none; stroke: #b0b0b0; stroke-opacity: 0.17; stroke-width: 0.55; stroke-linecap: square"/>
     </g>
     <g id="line2d_50">
      <g>
       <use xlink:href="#m9b9f2ff0d2" x="294.071459" y="179.758044" style="stroke: #000000; stroke-width: 0.8"/>
      </g>
     </g>
    </g>
   </g>
   <g id="LineCollection_1">
    <path d="M 464.756232 59.569956
L 466.270189 59.569956
" clip-path="url(#p42727ca2c3)" style="fill: none; stroke: #555555; stroke-width: 0.85"/>
    <path d="M 351.223336 83.607574
L 353.381986 83.607574
" clip-path="url(#p42727ca2c3)" style="fill: none; stroke: #555555; stroke-width: 0.85"/>
    <path d="M 351.223336 107.645191
L 351.896416 107.645191
" clip-path="url(#p42727ca2c3)" style="fill: none; stroke: #555555; stroke-width: 0.85"/>
    <path d="M 309.659539 131.682809
L 310.598823 131.682809
" clip-path="url(#p42727ca2c3)" style="fill: none; stroke: #555555; stroke-width: 0.85"/>
    <path d="M 351.910294 155.720426
L 352.442702 155.720426
" clip-path="url(#p42727ca2c3)" style="fill: none; stroke: #555555; stroke-width: 0.85"/>
    <path d="M 309.757946 179.758044
L 311.328046 179.758044
" clip-path="url(#p42727ca2c3)" style="fill: none; stroke: #555555; stroke-width: 0.85"/>
   </g>
   <g id="line2d_51">
    <defs>
     <path id="m89efe82ec4" d="M 0 2.5
L 0 -2.5
" style="stroke: #555555"/>
    </defs>
    <g clip-path="url(#p42727ca2c3)">
     <use xlink:href="#m89efe82ec4" x="464.756232" y="59.569956" style="fill: #1f77b4; stroke: #555555"/>
     <use xlink:href="#m89efe82ec4" x="351.223336" y="83.607574" style="fill: #1f77b4; stroke: #555555"/>
     <use xlink:href="#m89efe82ec4" x="351.223336" y="107.645191" style="fill: #1f77b4; stroke: #555555"/>
     <use xlink:href="#m89efe82ec4" x="309.659539" y="131.682809" style="fill: #1f77b4; stroke: #555555"/>
     <use xlink:href="#m89efe82ec4" x="351.910294" y="155.720426" style="fill: #1f77b4; stroke: #555555"/>
     <use xlink:href="#m89efe82ec4" x="309.757946" y="179.758044" style="fill: #1f77b4; stroke: #555555"/>
    </g>
   </g>
   <g id="line2d_52">
    <g clip-path="url(#p42727ca2c3)">
     <use xlink:href="#m89efe82ec4" x="466.270189" y="59.569956" style="fill: #1f77b4; stroke: #555555"/>
     <use xlink:href="#m89efe82ec4" x="353.381986" y="83.607574" style="fill: #1f77b4; stroke: #555555"/>
     <use xlink:href="#m89efe82ec4" x="351.896416" y="107.645191" style="fill: #1f77b4; stroke: #555555"/>
     <use xlink:href="#m89efe82ec4" x="310.598823" y="131.682809" style="fill: #1f77b4; stroke: #555555"/>
     <use xlink:href="#m89efe82ec4" x="352.442702" y="155.720426" style="fill: #1f77b4; stroke: #555555"/>
     <use xlink:href="#m89efe82ec4" x="311.328046" y="179.758044" style="fill: #1f77b4; stroke: #555555"/>
    </g>
   </g>
   <g id="patch_12">
    <path d="M 294.071459 196.344
L 294.071459 42.984
" style="fill: none; stroke: #000000; stroke-width: 0.8; stroke-linejoin: miter; stroke-linecap: square"/>
   </g>
   <g id="patch_13">
    <path d="M 294.071459 196.344
L 494.037737 196.344
" style="fill: none; stroke: #000000; stroke-width: 0.8; stroke-linejoin: miter; stroke-linecap: square"/>
   </g>
   <g id="PathCollection_1">
    <defs>
     <path id="m1d967ad554" d="M 0 4.123106
C 1.09346 4.123106 2.142283 3.688669 2.915476 2.915476
C 3.688669 2.142283 4.123106 1.09346 4.123106 0
C 4.123106 -1.09346 3.688669 -2.142283 2.915476 -2.915476
C 2.142283 -3.688669 1.09346 -4.123106 0 -4.123106
C -1.09346 -4.123106 -2.142283 -3.688669 -2.915476 -2.915476
C -3.688669 -2.142283 -4.123106 -1.09346 -4.123106 0
C -4.123106 1.09346 -3.688669 2.142283 -2.915476 2.915476
C -2.142283 3.688669 -1.09346 4.123106 0 4.123106
z
" style="stroke: #222222; stroke-width: 0.7"/>
    </defs>
    <g clip-path="url(#p42727ca2c3)">
     <use xlink:href="#m1d967ad554" x="465.536551" y="59.569956" style="fill: #5a6470; stroke: #222222; stroke-width: 0.7"/>
    </g>
   </g>
   <g id="text_29">
    <text style="font-size: 7.3px; font-family: 'DejaVu Serif'; text-anchor: start" x="469.006036" y="61.5843" transform="rotate(-0 469.006036 61.5843)">45.18</text>
   </g>
   <g id="PathCollection_2">
    <defs>
     <path id="m364dc3e796" d="M -4.123106 4.123106
L 4.123106 4.123106
L 4.123106 -4.123106
L -4.123106 -4.123106
z
" style="stroke: #222222; stroke-width: 0.7"/>
    </defs>
    <g clip-path="url(#p42727ca2c3)">
     <use xlink:href="#m364dc3e796" x="352.167036" y="83.607574" style="fill: #8b9daa; stroke: #222222; stroke-width: 0.7"/>
    </g>
   </g>
   <g id="text_30">
    <text style="font-size: 7.3px; font-family: 'DejaVu Serif'; text-anchor: start" x="355.636521" y="85.621917" transform="rotate(-0 355.636521 85.621917)">27.21</text>
   </g>
   <g id="PathCollection_3">
    <defs>
     <path id="m0246ad0fc4" d="M -0 5.830952
L 5.830952 0
L 0 -5.830952
L -5.830952 -0
z
" style="stroke: #222222; stroke-width: 0.7"/>
    </defs>
    <g clip-path="url(#p42727ca2c3)">
     <use xlink:href="#m0246ad0fc4" x="351.564607" y="107.645191" style="fill: #7c8e77; stroke: #222222; stroke-width: 0.7"/>
    </g>
   </g>
   <g id="text_31">
    <text style="font-size: 7.3px; font-family: 'DejaVu Serif'; text-anchor: start" x="355.034092" y="109.659535" transform="rotate(-0 355.034092 109.659535)">27.11</text>
   </g>
   <g id="PathCollection_4">
    <defs>
     <path id="m923a1dfabb" d="M 0 -4.123106
L -4.123106 4.123106
L 4.123106 4.123106
z
" style="stroke: #222222; stroke-width: 0.7"/>
    </defs>
    <g clip-path="url(#p42727ca2c3)">
     <use xlink:href="#m923a1dfabb" x="310.178069" y="131.682809" style="fill: #b7a99e; stroke: #222222; stroke-width: 0.7"/>
    </g>
   </g>
   <g id="text_32">
    <text style="font-size: 7.3px; font-family: 'DejaVu Serif'; text-anchor: start" x="313.647554" y="133.697153" transform="rotate(-0 313.647554 133.697153)">20.55</text>
   </g>
   <g id="PathCollection_5">
    <defs>
     <path id="mecc73aeddd" d="M -2.397916 4.795832
L 0 2.397916
L 2.397916 4.795832
L 4.795832 2.397916
L 2.397916 0
L 4.795832 -2.397916
L 2.397916 -4.795832
L 0 -2.397916
L -2.397916 -4.795832
L -4.795832 -2.397916
L -2.397916 0
L -4.795832 2.397916
z
" style="stroke: #c96a6a; stroke-width: 1.5"/>
    </defs>
    <g clip-path="url(#p42727ca2c3)">
     <use xlink:href="#mecc73aeddd" x="352.097015" y="155.720426" style="fill: #ffffff; stroke: #c96a6a; stroke-width: 1.5"/>
    </g>
   </g>
   <g id="text_33">
    <text style="font-size: 7.3px; font-family: 'DejaVu Serif'; text-anchor: start" x="355.5665" y="157.73477" transform="rotate(-0 355.5665 157.73477)">27.20</text>
   </g>
   <g id="PathCollection_6">
    <defs>
     <path id="m02da323371" d="M -1.598611 4.795832
L 1.598611 4.795832
L 1.598611 1.598611
L 4.795832 1.598611
L 4.795832 -1.598611
L 1.598611 -1.598611
L 1.598611 -4.795832
L -1.598611 -4.795832
L -1.598611 -1.598611
L -4.795832 -1.598611
L -4.795832 1.598611
L -1.598611 1.598611
z
" style="stroke: #988ba5; stroke-width: 1.5"/>
    </defs>
    <g clip-path="url(#p42727ca2c3)">
     <use xlink:href="#m02da323371" x="310.762204" y="179.758044" style="fill: #ffffff; stroke: #988ba5; stroke-width: 1.5"/>
    </g>
   </g>
   <g id="text_34">
    <text style="font-size: 7.3px; font-family: 'DejaVu Serif'; text-anchor: start" x="314.231689" y="181.772388" transform="rotate(-0 314.231689 181.772388)">20.65</text>
   </g>
   <g id="text_35">
    <text style="font-weight: 700; font-size: 10.4px; font-family: 'DejaVu Serif'; text-anchor: start" x="294.071459" y="35.984" transform="rotate(-0 294.071459 35.984)">Accuracy boundary</text>
   </g>
  </g>
  <g id="text_36">
   <text style="font-weight: 700; font-size: 11.2px; font-family: 'DejaVu Serif'; text-anchor: middle" x="244.010537" y="15.71025" transform="rotate(-0 244.010537 15.71025)">Phase4 Runtime/Accuracy Boundary</text>
  </g>
  <g id="legend_1">
   <g id="patch_14">
    <path d="M 112.088788 235.101375
L 127.288788 235.101375
L 127.288788 229.781375
L 112.088788 229.781375
z
" style="fill: #d9d9d9; stroke: #1f1f1f; stroke-linejoin: miter"/>
   </g>
   <g id="text_37">
    <text style="font-size: 7.6px; font-family: 'DejaVu Serif'; text-anchor: start" x="133.368787" y="235.101375" transform="rotate(-0 133.368787 235.101375)">runtime/materialization ready</text>
   </g>
   <g id="patch_15">
    <path d="M 264.217037 235.101375
L 279.417037 235.101375
L 279.417037 229.781375
L 264.217037 229.781375
z
" style="fill: url(#h73e78c7100); stroke: #1f1f1f; stroke-linejoin: miter"/>
   </g>
   <g id="text_38">
    <text style="font-size: 7.6px; font-family: 'DejaVu Serif'; text-anchor: start" x="285.497037" y="235.101375" transform="rotate(-0 285.497037 235.101375)">accuracy claim blocked</text>
   </g>
  </g>
 </g>
 <defs>
  <clipPath id="pc56d63d722">
   <rect x="48.112938" y="42.984" width="199.966278" height="153.36"/>
  </clipPath>
  <clipPath id="p42727ca2c3">
   <rect x="294.071459" y="42.984" width="199.966278" height="153.36"/>
  </clipPath>
 </defs>
 <defs>
  <pattern id="hb7a22b933d" patternUnits="userSpaceOnUse" x="0" y="0" width="72" height="72">
   <rect x="0" y="0" width="73" height="73" fill="#c96a6a"/>
   <path d="M -36 36
L 36 -36
M -32 40
L 40 -32
M -28 44
L 44 -28
M -24 48
L 48 -24
M -20 52
L 52 -20
M -16 56
L 56 -16
M -12 60
L 60 -12
M -8 64
L 64 -8
M -4 68
L 68 -4
M 0 72
L 72 0
M 4 76
L 76 4
M 8 80
L 80 8
M 12 84
L 84 12
M 16 88
L 88 16
M 20 92
L 92 20
M 24 96
L 96 24
M 28 100
L 100 28
M 32 104
L 104 32
M 36 108
L 108 36
" style="fill: #222222; stroke: #222222; stroke-width: 1.0; stroke-linecap: butt; stroke-linejoin: miter"/>
  </pattern>
  <pattern id="he7eb8820df" patternUnits="userSpaceOnUse" x="0" y="0" width="72" height="72">
   <rect x="0" y="0" width="73" height="73" fill="#988ba5"/>
   <path d="M -36 36
L 36 -36
M -32 40
L 40 -32
M -28 44
L 44 -28
M -24 48
L 48 -24
M -20 52
L 52 -20
M -16 56
L 56 -16
M -12 60
L 60 -12
M -8 64
L 64 -8
M -4 68
L 68 -4
M 0 72
L 72 0
M 4 76
L 76 4
M 8 80
L 80 8
M 12 84
L 84 12
M 16 88
L 88 16
M 20 92
L 92 20
M 24 96
L 96 24
M 28 100
L 100 28
M 32 104
L 104 32
M 36 108
L 108 36
" style="fill: #222222; stroke: #222222; stroke-width: 1.0; stroke-linecap: butt; stroke-linejoin: miter"/>
  </pattern>
  <pattern id="h73e78c7100" patternUnits="userSpaceOnUse" x="0" y="0" width="72" height="72">
   <rect x="0" y="0" width="73" height="73" fill="#d9d9d9"/>
   <path d="M -36 36
L 36 -36
M -32 40
L 40 -32
M -28 44
L 44 -28
M -24 48
L 48 -24
M -20 52
L 52 -20
M -16 56
L 56 -16
M -12 60
L 60 -12
M -8 64
L 64 -8
M -4 68
L 68 -4
M 0 72
L 72 0
M 4 76
L 76 4
M 8 80
L 80 8
M 12 84
L 84 12
M 16 88
L 88 16
M 20 92
L 92 20
M 24 96
L 96 24
M 28 100
L 100 28
M 32 104
L 104 32
M 36 108
L 108 36
" style="fill: #1f1f1f; stroke: #1f1f1f; stroke-width: 1.0; stroke-linecap: butt; stroke-linejoin: miter"/>
  </pattern>
 </defs>
</svg>
