<?xml version="1.0" encoding="utf-8" standalone="no"?>
<!DOCTYPE svg PUBLIC "-//W3C//DTD SVG 1.1//EN"
  "http://www.w3.org/Graphics/SVG/1.1/DTD/svg11.dtd">
<svg xmlns:xlink="http://www.w3.org/1999/xlink" width="379.872944pt" height="287.153719pt" viewBox="0 0 379.872944 287.153719" xmlns="http://www.w3.org/2000/svg" version="1.1">
 <metadata>
  <rdf:RDF xmlns:dc="http://purl.org/dc/elements/1.1/" xmlns:cc="http://creativecommons.org/ns#" xmlns:rdf="http://www.w3.org/1999/02/22-rdf-syntax-ns#">
   <cc:Work>
    <dc:type rdf:resource="http://purl.org/dc/dcmitype/StillImage"/>
    <dc:date>2026-04-30T21:29:32.494108</dc:date>
    <dc:format>image/svg+xml</dc:format>
    <dc:creator>
     <cc:Agent>
      <dc:title>Matplotlib v3.10.9, https://matplotlib.org/</dc:title>
     </cc:Agent>
    </dc:creator>
   </cc:Work>
  </rdf:RDF>
 </metadata>
 <defs>
  <style type="text/css">*{stroke-linejoin: round; stroke-linecap: butt}</style>
 </defs>
 <g id="figure_1">
  <g id="patch_1">
   <path d="M 0 287.153719
L 379.872944 287.153719
L 379.872944 0
L 0 0
z
" style="fill: #ffffff"/>
  </g>
  <g id="axes_1">
   <g id="patch_2">
    <path d="M 36.472766 253.178375
L 365.692766 253.178375
L 365.692766 23.102375
L 36.472766 23.102375
z
" style="fill: #ffffff"/>
   </g>
   <g id="matplotlib.axis_1">
    <g id="xtick_1">
     <g id="line2d_1">
      <path d="M 36.472766 253.178375
L 36.472766 23.102375
" clip-path="url(#paefe600e67)" style="fill: none; stroke: #b0b0b0; stroke-opacity: 0.17; stroke-width: 0.55; stroke-linecap: square"/>
     </g>
     <g id="line2d_2">
      <defs>
       <path id="mf96f784dc0" d="M 0 0
L 0 3.5
" style="stroke: #000000; stroke-width: 0.8"/>
      </defs>
      <g>
       <use xlink:href="#mf96f784dc0" x="36.472766" y="253.178375" style="stroke: #000000; stroke-width: 0.8"/>
      </g>
     </g>
     <g id="text_1">
      <text style="font-size: 7.8px; font-family: 'DejaVu Serif'; text-anchor: middle" x="36.472766" y="266.105156" transform="rotate(-0 36.472766 266.105156)">0</text>
     </g>
    </g>
    <g id="xtick_2">
     <g id="line2d_3">
      <path d="M 77.270327 253.178375
L 77.270327 23.102375
" clip-path="url(#paefe600e67)" style="fill: none; stroke: #b0b0b0; stroke-opacity: 0.17; stroke-width: 0.55; stroke-linecap: square"/>
     </g>
     <g id="line2d_4">
      <g>
       <use xlink:href="#mf96f784dc0" x="77.270327" y="253.178375" style="stroke: #000000; stroke-width: 0.8"/>
      </g>
     </g>
     <g id="text_2">
      <text style="font-size: 7.8px; font-family: 'DejaVu Serif'; text-anchor: middle" x="77.270327" y="266.105156" transform="rotate(-0 77.270327 266.105156)">2</text>
     </g>
    </g>
    <g id="xtick_3">
     <g id="line2d_5">
      <path d="M 118.067888 253.178375
L 118.067888 23.102375
" clip-path="url(#paefe600e67)" style="fill: none; stroke: #b0b0b0; stroke-opacity: 0.17; stroke-width: 0.55; stroke-linecap: square"/>
     </g>
     <g id="line2d_6">
      <g>
       <use xlink:href="#mf96f784dc0" x="118.067888" y="253.178375" style="stroke: #000000; stroke-width: 0.8"/>
      </g>
     </g>
     <g id="text_3">
      <text style="font-size: 7.8px; font-family: 'DejaVu Serif'; text-anchor: middle" x="118.067888" y="266.105156" transform="rotate(-0 118.067888 266.105156)">4</text>
     </g>
    </g>
    <g id="xtick_4">
     <g id="line2d_7">
      <path d="M 158.865449 253.178375
L 158.865449 23.102375
" clip-path="url(#paefe600e67)" style="fill: none; stroke: #b0b0b0; stroke-opacity: 0.17; stroke-width: 0.55; stroke-linecap: square"/>
     </g>
     <g id="line2d_8">
      <g>
       <use xlink:href="#mf96f784dc0" x="158.865449" y="253.178375" style="stroke: #000000; stroke-width: 0.8"/>
      </g>
     </g>
     <g id="text_4">
      <text style="font-size: 7.8px; font-family: 'DejaVu Serif'; text-anchor: middle" x="158.865449" y="266.105156" transform="rotate(-0 158.865449 266.105156)">6</text>
     </g>
    </g>
    <g id="xtick_5">
     <g id="line2d_9">
      <path d="M 199.66301 253.178375
L 199.66301 23.102375
" clip-path="url(#paefe600e67)" style="fill: none; stroke: #b0b0b0; stroke-opacity: 0.17; stroke-width: 0.55; stroke-linecap: square"/>
     </g>
     <g id="line2d_10">
      <g>
       <use xlink:href="#mf96f784dc0" x="199.66301" y="253.178375" style="stroke: #000000; stroke-width: 0.8"/>
      </g>
     </g>
     <g id="text_5">
      <text style="font-size: 7.8px; font-family: 'DejaVu Serif'; text-anchor: middle" x="199.66301" y="266.105156" transform="rotate(-0 199.66301 266.105156)">8</text>
     </g>
    </g>
    <g id="xtick_6">
     <g id="line2d_11">
      <path d="M 240.460572 253.178375
L 240.460572 23.102375
" clip-path="url(#paefe600e67)" style="fill: none; stroke: #b0b0b0; stroke-opacity: 0.17; stroke-width: 0.55; stroke-linecap: square"/>
     </g>
     <g id="line2d_12">
      <g>
       <use xlink:href="#mf96f784dc0" x="240.460572" y="253.178375" style="stroke: #000000; stroke-width: 0.8"/>
      </g>
     </g>
     <g id="text_6">
      <text style="font-size: 7.8px; font-family: 'DejaVu Serif'; text-anchor: middle" x="240.460572" y="266.105156" transform="rotate(-0 240.460572 266.105156)">10</text>
     </g>
    </g>
    <g id="xtick_7">
     <g id="line2d_13">
      <path d="M 281.258133 253.178375
L 281.258133 23.102375
" clip-path="url(#paefe600e67)" style="fill: none; stroke: #b0b0b0; stroke-opacity: 0.17; stroke-width: 0.55; stroke-linecap: square"/>
     </g>
     <g id="line2d_14">
      <g>
       <use xlink:href="#mf96f784dc0" x="281.258133" y="253.178375" style="stroke: #000000; stroke-width: 0.8"/>
      </g>
     </g>
     <g id="text_7">
      <text style="font-size: 7.8px; font-family: 'DejaVu Serif'; text-anchor: middle" x="281.258133" y="266.105156" transform="rotate(-0 281.258133 266.105156)">12</text>
     </g>
    </g>
    <g id="xtick_8">
     <g id="line2d_15">
      <path d="M 322.055694 253.178375
L 322.055694 23.102375
" clip-path="url(#paefe600e67)" style="fill: none; stroke: #b0b0b0; stroke-opacity: 0.17; stroke-width: 0.55; stroke-linecap: square"/>
     </g>
     <g id="line2d_16">
      <g>
       <use xlink:href="#mf96f784dc0" x="322.055694" y="253.178375" style="stroke: #000000; stroke-width: 0.8"/>
      </g>
     </g>
     <g id="text_8">
      <text style="font-size: 7.8px; font-family: 'DejaVu Serif'; text-anchor: middle" x="322.055694" y="266.105156" transform="rotate(-0 322.055694 266.105156)">14</text>
     </g>
    </g>
    <g id="xtick_9">
     <g id="line2d_17">
      <path d="M 362.853255 253.178375
L 362.853255 23.102375
" clip-path="url(#paefe600e67)" style="fill: none; stroke: #b0b0b0; stroke-opacity: 0.17; stroke-width: 0.55; stroke-linecap: square"/>
     </g>
     <g id="line2d_18">
      <g>
       <use xlink:href="#mf96f784dc0" x="362.853255" y="253.178375" style="stroke: #000000; stroke-width: 0.8"/>
      </g>
     </g>
     <g id="text_9">
      <text style="font-size: 7.8px; font-family: 'DejaVu Serif'; text-anchor: middle" x="362.853255" y="266.105156" transform="rotate(-0 362.853255 266.105156)">16</text>
     </g>
    </g>
    <g id="text_10">
     <text style="font-size: 8.5px; font-family: 'DejaVu Serif'; text-anchor: middle" x="201.082766" y="278.185984" transform="rotate(-0 201.082766 278.185984)">Speedup vs ASTRA (x)</text>
    </g>
   </g>
   <g id="matplotlib.axis_2">
    <g id="ytick_1">
     <g id="line2d_19">
      <path d="M 36.472766 238.013964
L 365.692766 238.013964
" clip-path="url(#paefe600e67)" style="fill: none; stroke: #b0b0b0; stroke-opacity: 0.17; stroke-width: 0.55; stroke-linecap: square"/>
     </g>
     <g id="line2d_20">
      <defs>
       <path id="m92f401ecba" d="M 0 0
L -3.5 0
" style="stroke: #000000; stroke-width: 0.8"/>
      </defs>
      <g>
       <use xlink:href="#m92f401ecba" x="36.472766" y="238.013964" style="stroke: #000000; stroke-width: 0.8"/>
      </g>
     </g>
     <g id="text_11">
      <text style="font-size: 7.8px; font-family: 'DejaVu Serif'; text-anchor: end" x="29.472766" y="240.977354" transform="rotate(-0 29.472766 240.977354)">20</text>
     </g>
    </g>
    <g id="ytick_2">
     <g id="line2d_21">
      <path d="M 36.472766 200.102936
L 365.692766 200.102936
" clip-path="url(#paefe600e67)" style="fill: none; stroke: #b0b0b0; stroke-opacity: 0.17; stroke-width: 0.55; stroke-linecap: square"/>
     </g>
     <g id="line2d_22">
      <g>
       <use xlink:href="#m92f401ecba" x="36.472766" y="200.102936" style="stroke: #000000; stroke-width: 0.8"/>
      </g>
     </g>
     <g id="text_12">
      <text style="font-size: 7.8px; font-family: 'DejaVu Serif'; text-anchor: end" x="29.472766" y="203.066327" transform="rotate(-0 29.472766 203.066327)">25</text>
     </g>
    </g>
    <g id="ytick_3">
     <g id="line2d_23">
      <path d="M 36.472766 162.191908
L 365.692766 162.191908
" clip-path="url(#paefe600e67)" style="fill: none; stroke: #b0b0b0; stroke-opacity: 0.17; stroke-width: 0.55; stroke-linecap: square"/>
     </g>
     <g id="line2d_24">
      <g>
       <use xlink:href="#m92f401ecba" x="36.472766" y="162.191908" style="stroke: #000000; stroke-width: 0.8"/>
      </g>
     </g>
     <g id="text_13">
      <text style="font-size: 7.8px; font-family: 'DejaVu Serif'; text-anchor: end" x="29.472766" y="165.155299" transform="rotate(-0 29.472766 165.155299)">30</text>
     </g>
    </g>
    <g id="ytick_4">
     <g id="line2d_25">
      <path d="M 36.472766 124.28088
L 365.692766 124.28088
" clip-path="url(#paefe600e67)" style="fill: none; stroke: #b0b0b0; stroke-opacity: 0.17; stroke-width: 0.55; stroke-linecap: square"/>
     </g>
     <g id="line2d_26">
      <g>
       <use xlink:href="#m92f401ecba" x="36.472766" y="124.28088" style="stroke: #000000; stroke-width: 0.8"/>
      </g>
     </g>
     <g id="text_14">
      <text style="font-size: 7.8px; font-family: 'DejaVu Serif'; text-anchor: end" x="29.472766" y="127.244271" transform="rotate(-0 29.472766 127.244271)">35</text>
     </g>
    </g>
    <g id="ytick_5">
     <g id="line2d_27">
      <path d="M 36.472766 86.369853
L 365.692766 86.369853
" clip-path="url(#paefe600e67)" style="fill: none; stroke: #b0b0b0; stroke-opacity: 0.17; stroke-width: 0.55; stroke-linecap: square"/>
     </g>
     <g id="line2d_28">
      <g>
       <use xlink:href="#m92f401ecba" x="36.472766" y="86.369853" style="stroke: #000000; stroke-width: 0.8"/>
      </g>
     </g>
     <g id="text_15">
      <text style="font-size: 7.8px; font-family: 'DejaVu Serif'; text-anchor: end" x="29.472766" y="89.333243" transform="rotate(-0 29.472766 89.333243)">40</text>
     </g>
    </g>
    <g id="ytick_6">
     <g id="line2d_29">
      <path d="M 36.472766 48.458825
L 365.692766 48.458825
" clip-path="url(#paefe600e67)" style="fill: none; stroke: #b0b0b0; stroke-opacity: 0.17; stroke-width: 0.55; stroke-linecap: square"/>
     </g>
     <g id="line2d_30">
      <g>
       <use xlink:href="#m92f401ecba" x="36.472766" y="48.458825" style="stroke: #000000; stroke-width: 0.8"/>
      </g>
     </g>
     <g id="text_16">
      <text style="font-size: 7.8px; font-family: 'DejaVu Serif'; text-anchor: end" x="29.472766" y="51.422215" transform="rotate(-0 29.472766 51.422215)">45</text>
     </g>
    </g>
    <g id="text_17">
     <text style="font-size: 8.5px; font-family: 'DejaVu Serif'; text-anchor: middle" x="13.658672" y="138.140375" transform="rotate(-90 13.658672 138.140375)">Top-1 accuracy (%)</text>
    </g>
   </g>
   <g id="line2d_31">
    <path d="M 36.472766 47.082654
L 365.692766 47.082654
" clip-path="url(#paefe600e67)" style="fill: none; stroke-dasharray: 2.96,1.28; stroke-dashoffset: 0; stroke: #8d8d8d; stroke-opacity: 0.55; stroke-width: 0.8"/>
   </g>
   <g id="patch_3">
    <path d="M 36.472766 253.178375
L 36.472766 23.102375
" style="fill: none; stroke: #000000; stroke-width: 0.8; stroke-linejoin: miter; stroke-linecap: square"/>
   </g>
   <g id="patch_4">
    <path d="M 36.472766 253.178375
L 365.692766 253.178375
" style="fill: none; stroke: #000000; stroke-width: 0.8; stroke-linejoin: miter; stroke-linecap: square"/>
   </g>
   <g id="PathCollection_1">
    <defs>
     <path id="m6bc097b997" d="M 0 4.636809
C 1.229696 4.636809 2.409193 4.148246 3.278719 3.278719
C 4.148246 2.409193 4.636809 1.229696 4.636809 0
C 4.636809 -1.229696 4.148246 -2.409193 3.278719 -3.278719
C 2.409193 -4.148246 1.229696 -4.636809 0 -4.636809
C -1.229696 -4.636809 -2.409193 -4.148246 -3.278719 -3.278719
C -4.148246 -2.409193 -4.636809 -1.229696 -4.636809 0
C -4.636809 1.229696 -4.148246 2.409193 -3.278719 3.278719
C -2.409193 4.148246 -1.229696 4.636809 0 4.636809
z
" style="stroke: #5a6470"/>
    </defs>
    <g clip-path="url(#paefe600e67)">
     <use xlink:href="#m6bc097b997" x="56.871546" y="47.082654" style="fill: #5a6470; stroke: #5a6470"/>
    </g>
   </g>
   <g id="patch_5">
    <path d="M 61.873349 45.381959
Q 61.266441 45.588318 60.659533 45.794677
" style="fill: none; stroke: #777777; stroke-width: 0.45; stroke-linecap: round"/>
   </g>
   <g id="text_18">
    <text style="font-size: 8px; font-family: 'DejaVu Serif'; text-anchor: start" x="63.871546" y="42.082654" transform="rotate(-0 63.871546 42.082654)">ASTRA</text>
   </g>
   <g id="PathCollection_2">
    <defs>
     <path id="m2621ad638c" d="M -4.636809 4.636809
L 4.636809 4.636809
L 4.636809 -4.636809
L -4.636809 -4.636809
z
" style="stroke: #8b9daa"/>
    </defs>
    <g clip-path="url(#paefe600e67)">
     <use xlink:href="#m2621ad638c" x="269.222852" y="183.349295" style="fill: #8b9daa; stroke: #8b9daa"/>
    </g>
   </g>
   <g id="patch_6">
    <path d="M 255.295468 178.922007
Q 260.353325 180.529817 265.411183 182.137627
" style="fill: none; stroke: #777777; stroke-width: 0.45; stroke-linecap: round"/>
   </g>
   <g id="text_19">
    <text style="font-size: 8px; font-family: 'DejaVu Serif'; text-anchor: start" x="227.222852" y="176.349295" transform="rotate(-0 227.222852 176.349295)">MESO</text>
   </g>
   <g id="PathCollection_3">
    <defs>
     <path id="m531310ecc1" d="M -0 6.557439
L 6.557439 0
L 0 -6.557439
L -6.557439 -0
z
" style="stroke: #7c8e77"/>
    </defs>
    <g clip-path="url(#paefe600e67)">
     <use xlink:href="#m531310ecc1" x="329.399255" y="184.073395" style="fill: #7c8e77; stroke: #7c8e77"/>
    </g>
   </g>
   <g id="patch_7">
    <path d="M 310.738536 175.736548
Q 318.244282 179.089809 325.750028 182.443069
" style="fill: none; stroke: #777777; stroke-width: 0.45; stroke-linecap: round"/>
   </g>
   <g id="text_20">
    <text style="font-size: 8px; font-family: 'DejaVu Serif'; text-anchor: start" x="285.399255" y="172.073395" transform="rotate(-0 285.399255 172.073395)">HOPS</text>
   </g>
   <g id="PathCollection_4">
    <defs>
     <path id="md537ac4a4a" d="M 0 -4.636809
L -4.636809 4.636809
L 4.636809 4.636809
z
" style="stroke: #b7a99e"/>
    </defs>
    <g clip-path="url(#paefe600e67)">
     <use xlink:href="#md537ac4a4a" x="290.437584" y="233.81873" style="fill: #b7a99e; stroke: #b7a99e"/>
    </g>
   </g>
   <g id="patch_8">
    <path d="M 297.576279 229.480044
Q 295.716663 230.610263 293.857047 231.740482
" style="fill: none; stroke: #777777; stroke-width: 0.45; stroke-linecap: round"/>
   </g>
   <g id="text_21">
    <text style="font-size: 8px; font-family: 'DejaVu Serif'; text-anchor: start" x="298.437584" y="225.81873" transform="rotate(-0 298.437584 225.81873)">DET</text>
   </g>
   <g id="PathCollection_5">
    <defs>
     <path id="m69f094c29d" d="M -2.692582 5.385165
L 0 2.692582
L 2.692582 5.385165
L 5.385165 2.692582
L 2.692582 0
L 5.385165 -2.692582
L 2.692582 -5.385165
L 0 -2.692582
L -2.692582 -5.385165
L -5.385165 -2.692582
L -2.692582 0
L -5.385165 2.692582
z
" style="stroke: #c96a6a; stroke-width: 1.8"/>
    </defs>
    <g clip-path="url(#paefe600e67)">
     <use xlink:href="#m69f094c29d" x="330.419194" y="183.433457" style="fill: #ffffff; stroke: #c96a6a; stroke-width: 1.8"/>
    </g>
   </g>
   <g id="patch_9">
    <path d="M 341.308739 179.096017
Q 337.720985 180.525064 334.133231 181.954111
" style="fill: none; stroke: #777777; stroke-width: 0.45; stroke-linecap: round"/>
   </g>
   <g id="text_22">
    <text style="font-size: 8px; font-family: 'DejaVu Serif'; text-anchor: start" x="339.419194" y="175.433457" transform="rotate(-0 339.419194 175.433457)">SPARSE</text>
   </g>
   <g id="PathCollection_6">
    <defs>
     <path id="m1cc41c813d" d="M -1.795055 5.385165
L 1.795055 5.385165
L 1.795055 1.795055
L 5.385165 1.795055
L 5.385165 -1.795055
L 1.795055 -1.795055
L 1.795055 -5.385165
L -1.795055 -5.385165
L -1.795055 -1.795055
L -5.385165 -1.795055
L -5.385165 1.795055
L -1.795055 1.795055
z
" style="stroke: #988ba5; stroke-width: 1.8"/>
    </defs>
    <g clip-path="url(#paefe600e67)">
     <use xlink:href="#m1cc41c813d" x="283.501999" y="233.116617" style="fill: #ffffff; stroke: #988ba5; stroke-width: 1.8"/>
    </g>
   </g>
   <g id="patch_10">
    <path d="M 266.283552 228.315653
Q 272.965369 230.178723 279.647185 232.041792
" style="fill: none; stroke: #777777; stroke-width: 0.45; stroke-linecap: round"/>
   </g>
   <g id="text_23">
    <text style="font-size: 8px; font-family: 'DejaVu Serif'; text-anchor: start" x="229.501999" y="225.116617" transform="rotate(-0 229.501999 225.116617)">FULLER</text>
   </g>
   <g id="text_24">
    <text style="font-size: 7.2px; font-family: 'DejaVu Serif'; text-anchor: end; fill: #555555" x="360.754466" y="39.207695" transform="rotate(-0 360.754466 39.207695)">ASTRA accuracy reference</text>
   </g>
   <g id="text_25">
    <text style="font-weight: 700; font-size: 10.4px; font-family: 'DejaVu Serif'; text-anchor: middle" x="201.082766" y="15.102375" transform="rotate(-0 201.082766 15.102375)">Runtime-Accuracy Pareto</text>
   </g>
   <g id="legend_1">
    <g id="line2d_32">
     <path d="M 42.952766 231.908
L 50.152766 231.908
L 57.352766 231.908
" style="fill: none; stroke: #000000; stroke-opacity: 0; stroke-width: 1.5; stroke-linecap: square"/>
     <defs>
      <path id="m6c77339f03" d="M 0 3
C 0.795609 3 1.55874 2.683901 2.12132 2.12132
C 2.683901 1.55874 3 0.795609 3 0
C 3 -0.795609 2.683901 -1.55874 2.12132 -2.12132
C 1.55874 -2.683901 0.795609 -3 0 -3
C -0.795609 -3 -1.55874 -2.683901 -2.12132 -2.12132
C -2.683901 -1.55874 -3 -0.795609 -3 0
C -3 0.795609 -2.683901 1.55874 -2.12132 2.12132
C -1.55874 2.683901 -0.795609 3 0 3
z
" style="stroke: #777777"/>
     </defs>
     <g>
      <use xlink:href="#m6c77339f03" x="50.152766" y="231.908" style="fill: #777777; stroke: #777777"/>
     </g>
    </g>
    <g id="text_26">
     <text style="font-size: 7.2px; font-family: 'DejaVu Serif'; text-anchor: start" x="63.112766" y="234.428" transform="rotate(-0 63.112766 234.428)">ready</text>
    </g>
    <g id="line2d_33">
     <path d="M 42.952766 242.578625
L 50.152766 242.578625
L 57.352766 242.578625
" style="fill: none; stroke: #000000; stroke-opacity: 0; stroke-width: 1.5; stroke-linecap: square"/>
     <defs>
      <path id="m6821469a39" d="M -1.75 3.5
L 0 1.75
L 1.75 3.5
L 3.5 1.75
L 1.75 0
L 3.5 -1.75
L 1.75 -3.5
L 0 -1.75
L -1.75 -3.5
L -3.5 -1.75
L -1.75 0
L -3.5 1.75
z
" style="stroke: #777777; stroke-linejoin: miter"/>
     </defs>
     <g>
      <use xlink:href="#m6821469a39" x="50.152766" y="242.578625" style="fill: #ffffff; stroke: #777777; stroke-linejoin: miter"/>
     </g>
    </g>
    <g id="text_27">
     <text style="font-size: 7.2px; font-family: 'DejaVu Serif'; text-anchor: start" x="63.112766" y="245.098625" transform="rotate(-0 63.112766 245.098625)">accuracy claim blocked</text>
    </g>
   </g>
  </g>
 </g>
 <defs>
  <clipPath id="paefe600e67">
   <rect x="36.472766" y="23.102375" width="329.22" height="230.076"/>
  </clipPath>
 </defs>
</svg>
