<?xml version="1.0" encoding="utf-8" standalone="no"?>
<!DOCTYPE svg PUBLIC "-//W3C//DTD SVG 1.1//EN"
  "http://www.w3.org/Graphics/SVG/1.1/DTD/svg11.dtd">
<svg xmlns:xlink="http://www.w3.org/1999/xlink" width="376.03447pt" height="201.386381pt" viewBox="0 0 376.03447 201.386381" xmlns="http://www.w3.org/2000/svg" version="1.1">
 <metadata>
  <rdf:RDF xmlns:dc="http://purl.org/dc/elements/1.1/" xmlns:cc="http://creativecommons.org/ns#" xmlns:rdf="http://www.w3.org/1999/02/22-rdf-syntax-ns#">
   <cc:Work>
    <dc:type rdf:resource="http://purl.org/dc/dcmitype/StillImage"/>
    <dc:date>2026-04-30T21:29:34.090232</dc:date>
    <dc:format>image/svg+xml</dc:format>
    <dc:creator>
     <cc:Agent>
      <dc:title>Matplotlib v3.10.9, https://matplotlib.org/</dc:title>
     </cc:Agent>
    </dc:creator>
   </cc:Work>
  </rdf:RDF>
 </metadata>
 <defs>
  <style type="text/css">*{stroke-linejoin: round; stroke-linecap: butt}</style>
 </defs>
 <g id="figure_1">
  <g id="patch_1">
   <path d="M 0 201.386381
L 376.03447 201.386381
L 376.03447 0
L 0 0
z
" style="fill: #ffffff"/>
  </g>
  <g id="axes_1">
   <g id="patch_2">
    <path d="M 48.112938 155.022375
L 354.184937 155.022375
L 354.184937 21.102375
L 48.112938 21.102375
z
" style="fill: #ffffff"/>
   </g>
   <g id="matplotlib.axis_1">
    <g id="xtick_1">
     <g id="line2d_1">
      <path d="M 48.112938 155.022375
L 48.112938 21.102375
" clip-path="url(#p160ac4770b)" style="fill: none; stroke: #b0b0b0; stroke-opacity: 0.17; stroke-width: 0.55; stroke-linecap: square"/>
     </g>
     <g id="line2d_2">
      <defs>
       <path id="m8955856493" d="M 0 0
L 0 3.5
" style="stroke: #000000; stroke-width: 0.8"/>
      </defs>
      <g>
       <use xlink:href="#m8955856493" x="48.112938" y="155.022375" style="stroke: #000000; stroke-width: 0.8"/>
      </g>
     </g>
     <g id="text_1">
      <text style="font-size: 7.8px; font-family: 'DejaVu Serif'; text-anchor: middle" x="48.112938" y="167.949156" transform="rotate(-0 48.112938 167.949156)">0</text>
     </g>
    </g>
    <g id="xtick_2">
     <g id="line2d_3">
      <path d="M 86.130734 155.022375
L 86.130734 21.102375
" clip-path="url(#p160ac4770b)" style="fill: none; stroke: #b0b0b0; stroke-opacity: 0.17; stroke-width: 0.55; stroke-linecap: square"/>
     </g>
     <g id="line2d_4">
      <g>
       <use xlink:href="#m8955856493" x="86.130734" y="155.022375" style="stroke: #000000; stroke-width: 0.8"/>
      </g>
     </g>
     <g id="text_2">
      <text style="font-size: 7.8px; font-family: 'DejaVu Serif'; text-anchor: middle" x="86.130734" y="167.949156" transform="rotate(-0 86.130734 167.949156)">5</text>
     </g>
    </g>
    <g id="xtick_3">
     <g id="line2d_5">
      <path d="M 124.14853 155.022375
L 124.14853 21.102375
" clip-path="url(#p160ac4770b)" style="fill: none; stroke: #b0b0b0; stroke-opacity: 0.17; stroke-width: 0.55; stroke-linecap: square"/>
     </g>
     <g id="line2d_6">
      <g>
       <use xlink:href="#m8955856493" x="124.14853" y="155.022375" style="stroke: #000000; stroke-width: 0.8"/>
      </g>
     </g>
     <g id="text_3">
      <text style="font-size: 7.8px; font-family: 'DejaVu Serif'; text-anchor: middle" x="124.14853" y="167.949156" transform="rotate(-0 124.14853 167.949156)">10</text>
     </g>
    </g>
    <g id="xtick_4">
     <g id="line2d_7">
      <path d="M 162.166326 155.022375
L 162.166326 21.102375
" clip-path="url(#p160ac4770b)" style="fill: none; stroke: #b0b0b0; stroke-opacity: 0.17; stroke-width: 0.55; stroke-linecap: square"/>
     </g>
     <g id="line2d_8">
      <g>
       <use xlink:href="#m8955856493" x="162.166326" y="155.022375" style="stroke: #000000; stroke-width: 0.8"/>
      </g>
     </g>
     <g id="text_4">
      <text style="font-size: 7.8px; font-family: 'DejaVu Serif'; text-anchor: middle" x="162.166326" y="167.949156" transform="rotate(-0 162.166326 167.949156)">15</text>
     </g>
    </g>
    <g id="xtick_5">
     <g id="line2d_9">
      <path d="M 200.184122 155.022375
L 200.184122 21.102375
" clip-path="url(#p160ac4770b)" style="fill: none; stroke: #b0b0b0; stroke-opacity: 0.17; stroke-width: 0.55; stroke-linecap: square"/>
     </g>
     <g id="line2d_10">
      <g>
       <use xlink:href="#m8955856493" x="200.184122" y="155.022375" style="stroke: #000000; stroke-width: 0.8"/>
      </g>
     </g>
     <g id="text_5">
      <text style="font-size: 7.8px; font-family: 'DejaVu Serif'; text-anchor: middle" x="200.184122" y="167.949156" transform="rotate(-0 200.184122 167.949156)">20</text>
     </g>
    </g>
    <g id="xtick_6">
     <g id="line2d_11">
      <path d="M 238.201918 155.022375
L 238.201918 21.102375
" clip-path="url(#p160ac4770b)" style="fill: none; stroke: #b0b0b0; stroke-opacity: 0.17; stroke-width: 0.55; stroke-linecap: square"/>
     </g>
     <g id="line2d_12">
      <g>
       <use xlink:href="#m8955856493" x="238.201918" y="155.022375" style="stroke: #000000; stroke-width: 0.8"/>
      </g>
     </g>
     <g id="text_6">
      <text style="font-size: 7.8px; font-family: 'DejaVu Serif'; text-anchor: middle" x="238.201918" y="167.949156" transform="rotate(-0 238.201918 167.949156)">25</text>
     </g>
    </g>
    <g id="xtick_7">
     <g id="line2d_13">
      <path d="M 276.219714 155.022375
L 276.219714 21.102375
" clip-path="url(#p160ac4770b)" style="fill: none; stroke: #b0b0b0; stroke-opacity: 0.17; stroke-width: 0.55; stroke-linecap: square"/>
     </g>
     <g id="line2d_14">
      <g>
       <use xlink:href="#m8955856493" x="276.219714" y="155.022375" style="stroke: #000000; stroke-width: 0.8"/>
      </g>
     </g>
     <g id="text_7">
      <text style="font-size: 7.8px; font-family: 'DejaVu Serif'; text-anchor: middle" x="276.219714" y="167.949156" transform="rotate(-0 276.219714 167.949156)">30</text>
     </g>
    </g>
    <g id="xtick_8">
     <g id="line2d_15">
      <path d="M 314.23751 155.022375
L 314.23751 21.102375
" clip-path="url(#p160ac4770b)" style="fill: none; stroke: #b0b0b0; stroke-opacity: 0.17; stroke-width: 0.55; stroke-linecap: square"/>
     </g>
     <g id="line2d_16">
      <g>
       <use xlink:href="#m8955856493" x="314.23751" y="155.022375" style="stroke: #000000; stroke-width: 0.8"/>
      </g>
     </g>
     <g id="text_8">
      <text style="font-size: 7.8px; font-family: 'DejaVu Serif'; text-anchor: middle" x="314.23751" y="167.949156" transform="rotate(-0 314.23751 167.949156)">35</text>
     </g>
    </g>
    <g id="xtick_9">
     <g id="line2d_17">
      <path d="M 352.255306 155.022375
L 352.255306 21.102375
" clip-path="url(#p160ac4770b)" style="fill: none; stroke: #b0b0b0; stroke-opacity: 0.17; stroke-width: 0.55; stroke-linecap: square"/>
     </g>
     <g id="line2d_18">
      <g>
       <use xlink:href="#m8955856493" x="352.255306" y="155.022375" style="stroke: #000000; stroke-width: 0.8"/>
      </g>
     </g>
     <g id="text_9">
      <text style="font-size: 7.8px; font-family: 'DejaVu Serif'; text-anchor: middle" x="352.255306" y="167.949156" transform="rotate(-0 352.255306 167.949156)">40</text>
     </g>
    </g>
    <g id="text_10">
     <text style="font-size: 8.5px; font-family: 'DejaVu Serif'; text-anchor: middle" x="201.148937" y="180.029984" transform="rotate(-0 201.148937 180.029984)">Top-1 accuracy (%)</text>
    </g>
   </g>
   <g id="matplotlib.axis_2">
    <g id="ytick_1">
     <g id="line2d_19">
      <path d="M 48.112938 54.244193
L 354.184937 54.244193
" clip-path="url(#p160ac4770b)" style="fill: none; stroke: #b0b0b0; stroke-opacity: 0.17; stroke-width: 0.55; stroke-linecap: square"/>
     </g>
     <g id="line2d_20">
      <defs>
       <path id="m2ab4f0edb4" d="M 0 0
L -3.5 0
" style="stroke: #000000; stroke-width: 0.8"/>
      </defs>
      <g>
       <use xlink:href="#m2ab4f0edb4" x="48.112938" y="54.244193" style="stroke: #000000; stroke-width: 0.8"/>
      </g>
     </g>
     <g id="text_11">
      <text style="font-size: 7.8px; font-family: 'DejaVu Serif'; text-anchor: end" x="41.112938" y="57.207584" transform="rotate(-0 41.112938 57.207584)">SPARSE</text>
     </g>
    </g>
    <g id="ytick_2">
     <g id="line2d_21">
      <path d="M 48.112938 121.880557
L 354.184937 121.880557
" clip-path="url(#p160ac4770b)" style="fill: none; stroke: #b0b0b0; stroke-opacity: 0.17; stroke-width: 0.55; stroke-linecap: square"/>
     </g>
     <g id="line2d_22">
      <g>
       <use xlink:href="#m2ab4f0edb4" x="48.112938" y="121.880557" style="stroke: #000000; stroke-width: 0.8"/>
      </g>
     </g>
     <g id="text_12">
      <text style="font-size: 7.8px; font-family: 'DejaVu Serif'; text-anchor: end" x="41.112938" y="124.843947" transform="rotate(-0 41.112938 124.843947)">FULLER</text>
     </g>
    </g>
   </g>
   <g id="patch_3">
    <path d="M 48.112938 27.189648
L 254.918343 27.189648
L 254.918343 81.298739
L 48.112938 81.298739
z
" clip-path="url(#p160ac4770b)" style="fill: url(#hd67b35cf7e); stroke: #000000; stroke-width: 0.75; stroke-linejoin: miter"/>
   </g>
   <g id="patch_4">
    <path d="M 48.112938 94.826011
L 205.095261 94.826011
L 205.095261 148.935102
L 48.112938 148.935102
z
" clip-path="url(#p160ac4770b)" style="fill: url(#h8956238c43); stroke: #000000; stroke-width: 0.75; stroke-linejoin: miter"/>
   </g>
   <g id="patch_5">
    <path d="M 48.112938 155.022375
L 48.112938 21.102375
" style="fill: none; stroke: #000000; stroke-width: 0.8; stroke-linejoin: miter; stroke-linecap: square"/>
   </g>
   <g id="patch_6">
    <path d="M 48.112938 155.022375
L 354.184937 155.022375
" style="fill: none; stroke: #000000; stroke-width: 0.8; stroke-linejoin: miter; stroke-linecap: square"/>
   </g>
   <g id="text_13">
    <text style="font-size: 7.4px; font-family: 'DejaVu Serif'; text-anchor: start" x="262.156532" y="56.199412" transform="rotate(-0 262.156532 56.199412)">27.20%  |  14.41x  |  blocked</text>
   </g>
   <g id="text_14">
    <text style="font-size: 7.4px; font-family: 'DejaVu Serif'; text-anchor: start" x="212.33345" y="123.835776" transform="rotate(-0 212.33345 123.835776)">20.65%  |  12.11x  |  blocked</text>
   </g>
   <g id="text_15">
    <text style="font-size: 7.5px; font-family: 'DejaVu Serif'; text-anchor: middle; fill: #3e4448" x="201.148937" y="192.519975" transform="rotate(-0 201.148937 192.519975)">Positive SPARSE/FULLER accuracy-preservation wording remains blocked.</text>
   </g>
   <g id="text_16">
    <text style="font-weight: 700; font-size: 10.4px; font-family: 'DejaVu Serif'; text-anchor: middle" x="201.148937" y="15.102375" transform="rotate(-0 201.148937 15.102375)">Holdout Claim Boundary</text>
   </g>
  </g>
 </g>
 <defs>
  <clipPath id="p160ac4770b">
   <rect x="48.112938" y="21.102375" width="306.072" height="133.92"/>
  </clipPath>
 </defs>
 <defs>
  <pattern id="hd67b35cf7e" patternUnits="userSpaceOnUse" x="0" y="0" width="72" height="72">
   <rect x="0" y="0" width="73" height="73" fill="#c96a6a"/>
   <path d="M -36 36
L 36 -36
M -32 40
L 40 -32
M -28 44
L 44 -28
M -24 48
L 48 -24
M -20 52
L 52 -20
M -16 56
L 56 -16
M -12 60
L 60 -12
M -8 64
L 64 -8
M -4 68
L 68 -4
M 0 72
L 72 0
M 4 76
L 76 4
M 8 80
L 80 8
M 12 84
L 84 12
M 16 88
L 88 16
M 20 92
L 92 20
M 24 96
L 96 24
M 28 100
L 100 28
M 32 104
L 104 32
M 36 108
L 108 36
" style="fill: #000000; stroke: #000000; stroke-width: 1.0; stroke-linecap: butt; stroke-linejoin: miter"/>
  </pattern>
  <pattern id="h8956238c43" patternUnits="userSpaceOnUse" x="0" y="0" width="72" height="72">
   <rect x="0" y="0" width="73" height="73" fill="#988ba5"/>
   <path d="M -36 36
L 36 -36
M -32 40
L 40 -32
M -28 44
L 44 -28
M -24 48
L 48 -24
M -20 52
L 52 -20
M -16 56
L 56 -16
M -12 60
L 60 -12
M -8 64
L 64 -8
M -4 68
L 68 -4
M 0 72
L 72 0
M 4 76
L 76 4
M 8 80
L 80 8
M 12 84
L 84 12
M 16 88
L 88 16
M 20 92
L 92 20
M 24 96
L 96 24
M 28 100
L 100 28
M 32 104
L 104 32
M 36 108
L 108 36
" style="fill: #000000; stroke: #000000; stroke-width: 1.0; stroke-linecap: butt; stroke-linejoin: miter"/>
  </pattern>
 </defs>
</svg>
